<?xml version="1.0" standalone="no"?>
<!DOCTYPE svg PUBLIC "-//W3C//DTD SVG 20010904//EN"
 "http://www.w3.org/TR/2001/REC-SVG-20010904/DTD/svg10.dtd">
<svg version="1.0" xmlns="http://www.w3.org/2000/svg"
 width="1280.000000pt" height="658.000000pt" viewBox="0 0 1280.000000 658.000000"
 preserveAspectRatio="xMidYMid meet">
<metadata>
Created by potrace 1.15, written by Peter Selinger 2001-2017
</metadata>
<g transform="translate(0.000000,658.000000) scale(0.100000,-0.100000)"
fill="#000000" stroke="none">
<path d="M10649 6223 c-13 -16 -12 -17 4 -4 16 13 21 21 13 21 -2 0 -10 -8
-17 -17z"/>
<path d="M10732 6215 c-6 -14 -17 -25 -23 -25 -8 0 -8 4 1 15 7 8 10 15 7 15
-15 0 -83 -36 -94 -50 -7 -8 -13 -10 -13 -5 0 6 -16 -14 -35 -43 -18 -30 -42
-64 -52 -75 l-18 -22 23 19 c13 12 22 14 22 7 0 -7 -14 -18 -31 -25 -18 -7
-38 -24 -45 -37 l-13 -24 -1 25 c-1 19 -5 14 -15 -19 -7 -24 -26 -56 -41 -72
-15 -16 -24 -29 -20 -29 5 0 2 -7 -5 -17 -8 -9 -13 -18 -11 -20 5 -7 -10 -4
-16 3 -4 4 -2 5 3 1 6 -3 12 3 12 14 2 25 -1 24 -22 -7 -9 -15 -13 -24 -7 -20
18 11 22 -25 6 -56 -9 -16 -11 -28 -6 -24 15 9 23 -51 11 -81 -6 -16 -18 -36
-27 -46 -13 -15 -13 -17 -1 -12 12 4 15 -2 13 -32 -3 -36 -2 -36 5 -8 14 54
23 75 32 75 12 0 11 -7 -3 -33 -13 -23 -19 -105 -10 -121 3 -5 9 -1 13 10 7
17 8 17 8 -5 1 -20 3 -21 16 -11 8 7 15 20 15 28 0 12 3 13 11 5 9 -9 8 -18
-4 -36 -15 -23 -14 -27 8 -57 23 -31 23 -35 9 -64 -14 -28 -14 -29 1 -12 8 11
15 18 16 15 0 -2 2 -17 4 -33 5 -36 9 -40 27 -23 13 13 16 12 27 -5 14 -22 26
-15 34 17 4 18 5 17 6 -3 0 -13 6 -20 11 -17 6 3 10 -2 10 -12 0 -14 2 -15 9
-4 7 11 10 10 15 -6 4 -11 5 -26 3 -34 -2 -8 -2 -11 0 -6 8 13 23 8 23 -8 0
-8 5 -15 10 -15 6 0 10 5 10 10 0 6 4 10 9 10 5 0 7 -10 5 -22 -2 -13 2 -5 11
16 15 40 34 68 21 32 -11 -32 -18 -134 -7 -111 5 11 10 30 10 43 l1 22 35 -22
c22 -15 37 -35 44 -58 5 -19 9 -27 10 -17 1 20 51 96 64 97 4 0 7 -11 7 -24 0
-14 6 -28 13 -32 6 -4 9 -4 5 1 -10 11 11 47 23 40 5 -4 9 5 9 19 0 46 17 27
19 -21 2 -59 11 -71 11 -14 0 44 13 48 31 7 8 -18 9 -17 6 10 -2 22 1 30 9 27
6 -2 14 6 18 19 l7 23 15 -27 c18 -35 23 -35 16 -3 -7 37 14 30 24 -7 l8 -33
3 33 c4 31 6 32 18 16 12 -17 13 -16 8 9 -3 15 0 34 8 43 12 14 14 14 21 -3 5
-11 6 -4 2 17 -6 37 9 33 20 -5 3 -12 4 -9 2 8 -2 15 1 30 5 33 5 3 9 -5 9
-17 0 -44 17 -3 19 46 1 17 4 16 22 -10 20 -29 21 -29 16 -5 -2 14 -7 32 -9
40 -3 8 -3 11 0 6 3 -5 11 4 18 20 12 26 13 26 9 4 l-5 -25 12 25 c7 14 19 30
27 36 8 6 11 16 7 23 -4 6 -3 18 4 26 6 7 12 25 14 39 1 13 8 32 16 41 11 13
10 15 -6 9 -18 -7 -18 -6 1 16 17 20 18 23 3 17 -10 -4 -18 -2 -18 2 0 5 8 12
17 15 15 6 15 8 3 16 -12 7 -12 12 -2 22 6 6 12 16 12 22 0 5 -7 1 -15 -10
-17 -22 -17 -20 -19 68 -1 50 0 55 11 35 12 -20 12 -19 9 13 -2 22 2 42 12 53
18 21 4 22 -24 2 -12 -8 -24 -12 -27 -9 -3 3 -13 -8 -22 -25 -8 -17 -20 -31
-25 -31 -14 0 -13 6 6 38 15 25 15 25 0 8 -19 -23 -21 -14 -4 17 11 21 10 21
-8 7 -18 -15 -18 -14 0 14 10 16 13 25 7 22 -12 -8 -11 21 2 41 6 9 3 11 -9 6
-12 -5 -15 -3 -9 6 6 11 3 11 -16 1 -13 -7 -21 -9 -17 -5 4 4 3 17 -3 28 -7
13 -7 17 -1 13 6 -3 13 -2 16 3 7 11 -13 9 -33 -3 -11 -7 -13 -4 -9 12 4 12 2
22 -3 22 -6 0 -6 7 -1 18 17 33 3 44 -29 21 -34 -24 -37 -21 -8 12 19 22 19
24 2 30 -17 6 -17 7 1 15 19 7 19 8 0 14 -22 8 -44 2 -44 -12 0 -5 5 -6 10 -3
6 3 10 1 10 -4 0 -14 -17 -14 -25 -1 -4 6 -11 8 -16 5 -12 -8 -11 12 2 38 8
14 -4 8 -31 -18 -24 -22 -40 -35 -37 -30 3 6 2 17 -3 25 -6 10 -3 21 8 35 10
12 5 10 -13 -6 -17 -14 -41 -26 -54 -27 -27 -1 -18 13 14 22 11 3 3 3 -19 1
-38 -4 -38 -4 -20 16 18 20 18 20 -9 10 -15 -6 -27 -9 -27 -6 0 2 -12 -2 -27
-10 -32 -17 -42 -12 -19 10 24 24 19 35 -9 22 -14 -7 -25 -15 -25 -19 0 -5 -5
-8 -11 -8 -5 0 -7 5 -4 10 3 6 2 10 -4 10 -6 0 -8 7 -5 15 10 25 -2 17 -14
-10z m121 -370 c-3 -9 -8 -14 -10 -11 -3 3 -2 9 2 15 9 16 15 13 8 -4z m420
-10 c-3 -9 -8 -14 -10 -11 -3 3 -2 9 2 15 9 16 15 13 8 -4z m-13 -189 c0 -2
-7 -7 -16 -10 -8 -3 -12 -2 -9 4 6 10 25 14 25 6z m-877 -61 c-3 -9 -8 -14
-10 -11 -3 3 -2 9 2 15 9 16 15 13 8 -4z m897 -25 c0 -5 -5 -10 -11 -10 -5 0
-7 5 -4 10 3 6 8 10 11 10 2 0 4 -4 4 -10z m-853 -122 c-3 -8 -6 -5 -6 6 -1
11 2 17 5 13 3 -3 4 -12 1 -19z m40 -45 c1 -19 -1 -22 -8 -12 -11 17 -12 39
-1 39 4 0 8 -12 9 -27z m43 -3 c0 -5 -5 -10 -11 -10 -5 0 -7 5 -4 10 3 6 8 10
11 10 2 0 4 -4 4 -10z m323 -55 c-3 -9 -8 -14 -10 -11 -3 3 -2 9 2 15 9 16 15
13 8 -4z m277 1 c0 -2 -8 -10 -17 -17 -16 -13 -17 -12 -4 4 13 16 21 21 21 13z
m-185 -36 c3 -5 1 -10 -4 -10 -6 0 -11 5 -11 10 0 6 2 10 4 10 3 0 8 -4 11
-10z m-95 -20 c-6 -11 -13 -20 -16 -20 -2 0 0 9 6 20 6 11 13 20 16 20 2 0 0
-9 -6 -20z m-10 -62 c0 -19 -18 -44 -25 -36 -4 3 0 15 7 27 15 24 18 26 18 9z
m-37 -63 c-3 -9 -8 -14 -10 -11 -3 3 -2 9 2 15 9 16 15 13 8 -4z"/>
<path d="M11217 6011 c-41 -26 -46 -36 -10 -17 17 9 35 20 38 26 8 13 6 12
-28 -9z"/>
<path d="M11295 5919 c-4 -6 -5 -12 -2 -15 2 -3 7 2 10 11 7 17 1 20 -8 4z"/>
<path d="M10281 5634 c0 -11 3 -14 6 -6 3 7 2 16 -1 19 -3 4 -6 -2 -5 -13z"/>
<path d="M10381 5424 c0 -11 3 -14 6 -6 3 7 2 16 -1 19 -3 4 -6 -2 -5 -13z"/>
<path d="M7899 5353 c-13 -16 -12 -17 4 -4 9 7 17 15 17 17 0 8 -8 3 -21 -13z"/>
<path d="M7969 5349 c-7 -14 -14 -18 -18 -11 -11 19 -104 -35 -96 -56 3 -7 1
-11 -3 -8 -8 4 -46 -50 -47 -66 0 -3 -4 -10 -9 -15 -5 -5 -6 -2 -1 7 4 8 -4 2
-19 -14 -14 -16 -26 -33 -26 -38 0 -4 -7 -8 -15 -8 -8 0 -15 -6 -15 -14 0 -7
-9 -25 -20 -38 -10 -14 -17 -28 -15 -32 3 -3 2 -4 -2 -1 -4 3 -13 -7 -20 -22
-11 -23 -12 -24 -9 -5 2 13 0 20 -6 16 -5 -4 -8 -18 -5 -33 3 -14 1 -33 -4
-43 -6 -11 -5 -26 3 -42 9 -20 8 -32 -1 -53 -7 -16 -14 -41 -16 -58 l-4 -30
17 33 c8 17 19 32 24 32 5 0 5 -8 0 -17 -13 -24 -21 -113 -12 -113 5 0 11 6
13 13 3 6 6 1 6 -13 l1 -25 20 30 c14 20 20 25 20 13 0 -9 -4 -20 -10 -23 -5
-3 -10 -16 -9 -28 0 -21 1 -21 8 -2 7 16 10 12 15 -22 4 -23 4 -48 0 -54 -4
-8 -3 -9 4 -5 11 6 17 -12 13 -36 0 -5 6 -8 14 -8 8 0 15 6 15 13 0 6 9 1 19
-12 l18 -24 7 24 6 24 15 -25 c8 -14 15 -20 15 -15 0 6 5 2 11 -8 8 -13 7 -22
-1 -33 -9 -10 -9 -14 -1 -14 6 0 11 5 11 10 0 6 5 10 11 10 5 0 7 -5 3 -12 -5
-7 -2 -9 9 -5 10 4 17 0 20 -11 2 -11 7 -5 14 18 10 31 11 28 7 -30 -4 -65 -1
-70 10 -17 l6 27 30 -22 c17 -12 30 -31 30 -42 0 -20 0 -20 15 0 17 23 19 38
4 28 -6 -3 -3 9 6 27 23 46 29 50 21 15 -6 -26 -5 -28 8 -17 14 12 16 10 16
-8 0 -21 1 -22 24 -4 13 10 22 23 19 29 -2 7 0 15 6 19 7 4 12 -9 13 -37 1
-37 2 -38 5 -10 4 31 23 46 23 18 0 -8 4 -17 9 -21 6 -3 8 6 5 21 -3 15 -1 23
5 20 5 -4 13 4 17 16 l6 21 14 -24 13 -24 2 25 c1 21 2 22 6 5 8 -35 23 -41
23 -10 0 27 1 28 15 9 14 -18 14 -18 8 3 -3 14 2 34 12 50 17 26 19 26 26 8 7
-18 8 -17 8 5 1 18 4 21 10 12 6 -10 10 -7 15 13 7 26 8 27 21 9 13 -17 14
-17 15 -2 0 9 -4 20 -10 23 -5 3 -10 12 -10 18 0 8 3 8 9 -1 6 -10 10 -8 14 8
3 12 10 19 16 15 6 -3 11 1 11 10 0 9 4 14 9 11 5 -3 11 11 14 32 10 62 12 69
26 86 12 14 12 16 -1 11 -21 -8 -19 32 2 45 8 5 10 10 4 10 -26 0 -40 94 -16
109 6 3 8 18 7 34 -2 15 1 27 6 27 5 0 9 4 9 8 0 11 -37 9 -47 -3 -5 -4 -1 -4
7 0 8 5 0 -6 -18 -24 -33 -33 -57 -37 -31 -4 8 9 9 14 4 11 -6 -4 -11 2 -11
12 0 10 4 16 9 13 5 -3 5 3 -1 13 -5 11 -8 27 -7 37 3 15 -6 21 -27 18 -4 0
-5 11 -2 25 4 22 2 25 -17 19 -20 -7 -21 -4 -16 47 4 37 3 48 -4 36 -5 -10
-20 -23 -32 -29 -21 -11 -21 -11 2 15 14 14 19 26 12 26 -7 0 -10 4 -7 9 9 13
-26 23 -38 11 -17 -17 -29 -11 -23 11 5 19 1 17 -26 -9 -31 -30 -33 -31 -32
-9 1 13 5 30 10 38 4 7 -3 4 -16 -7 -26 -23 -63 -29 -55 -8 3 9 -1 11 -12 7
-14 -5 -14 -3 3 17 l20 23 -20 -11 c-11 -6 -35 -16 -54 -21 -33 -11 -33 -10
-18 7 26 29 20 35 -12 13 -37 -27 -40 -26 -36 4 3 31 -1 31 -16 4z m451 -433
c0 -3 -4 -8 -10 -11 -5 -3 -10 -1 -10 4 0 6 5 11 10 11 6 0 10 -2 10 -4z
m-683 -268 c-3 -8 -6 -5 -6 6 -1 11 2 17 5 13 3 -3 4 -12 1 -19z m53 -2 c0 -3
-4 -8 -10 -11 -5 -3 -10 -1 -10 4 0 6 5 11 10 11 6 0 10 -2 10 -4z m270 -96
c-6 -11 -13 -20 -16 -20 -2 0 0 9 6 20 6 11 13 20 16 20 2 0 0 -9 -6 -20z"/>
<path d="M8130 5309 c0 -5 5 -7 10 -4 6 3 10 8 10 11 0 2 -4 4 -10 4 -5 0 -10
-5 -10 -11z"/>
<path d="M11130 5264 c0 -6 7 -19 16 -30 14 -18 14 -18 3 6 -14 31 -19 36 -19
24z"/>
<path d="M10511 5244 c0 -11 3 -14 6 -6 3 7 2 16 -1 19 -3 4 -6 -2 -5 -13z"/>
<path d="M8376 5165 c-11 -8 -15 -15 -10 -15 6 0 19 7 30 15 10 8 15 14 9 14
-5 0 -19 -6 -29 -14z"/>
<path d="M10696 5093 c-4 -5 -13 -8 -19 -8 -7 -1 -11 -5 -10 -11 1 -5 -13 -18
-30 -28 l-32 -18 20 23 c23 26 3 17 -34 -15 l-25 -21 19 30 c15 25 16 28 2 16
-14 -11 -17 -11 -18 0 0 8 -8 -2 -17 -21 -8 -19 -15 -39 -14 -43 2 -5 -2 -5
-8 -2 -6 4 -9 14 -6 24 3 9 -13 -4 -35 -29 -32 -34 -40 -39 -34 -21 5 16 4 21
-4 17 -6 -4 -11 -16 -11 -27 0 -11 -7 -22 -15 -25 -8 -4 -15 -12 -15 -18 0 -7
-13 -25 -30 -41 -16 -16 -30 -23 -30 -16 0 7 -4 9 -10 6 -5 -3 -10 -1 -10 5 0
7 6 10 14 7 14 -6 56 31 56 49 0 5 -11 -4 -25 -21 -14 -17 -24 -24 -25 -16 0
11 -5 10 -20 -4 -11 -10 -20 -23 -19 -29 4 -34 -4 -55 -34 -86 -19 -19 -42
-48 -52 -63 -21 -32 -32 -29 -15 5 l11 23 -19 -22 c-11 -12 -22 -20 -25 -17
-3 3 -13 -7 -23 -22 -10 -15 -36 -40 -59 -57 -22 -16 -32 -27 -23 -24 12 4 15
2 11 -9 -3 -7 -9 -14 -13 -14 -8 0 -83 -75 -145 -145 -35 -39 -36 -39 -26 -10
10 29 10 30 -5 8 -9 -13 -21 -23 -26 -23 -5 0 1 15 13 33 l23 32 -23 -20 c-13
-11 -33 -40 -44 -64 -13 -29 -23 -39 -26 -30 -7 16 -25 19 -38 5 -5 -5 -2 -6
6 -1 9 5 12 3 9 -6 -3 -8 -11 -13 -17 -11 -7 1 -10 -2 -6 -8 3 -5 2 -10 -4
-10 -6 0 -7 -7 -4 -17 4 -10 2 -14 -4 -10 -7 5 -18 -12 -27 -41 -13 -37 -27
-56 -61 -80 -25 -17 -44 -37 -43 -44 2 -7 -4 -12 -12 -13 -9 0 -15 -9 -14 -21
0 -11 -5 -21 -12 -21 -7 0 -11 5 -8 11 3 6 -1 3 -8 -7 -7 -10 -21 -28 -30 -39
-10 -11 -15 -25 -12 -30 4 -6 13 4 21 21 9 17 22 31 30 31 12 0 11 -3 -2 -16
-13 -14 -14 -19 -3 -25 11 -7 11 -9 0 -9 -7 0 -11 -4 -7 -10 3 -5 -6 -32 -20
-59 -14 -28 -25 -59 -25 -69 0 -10 -7 -27 -15 -38 -8 -10 -14 -23 -14 -29 0
-5 4 -2 10 8 10 17 29 15 29 -4 0 -6 -4 -8 -8 -5 -4 2 -8 -5 -9 -17 -2 -20 0
-19 23 8 l25 30 -15 -40 c-9 -22 -17 -52 -20 -67 -3 -15 -7 -32 -11 -38 -3 -5
-2 -10 4 -10 5 0 12 6 14 13 3 6 6 2 6 -9 1 -12 -12 -38 -29 -59 -33 -41 -38
-54 -15 -35 19 16 19 9 -1 -38 -8 -20 -14 -53 -13 -72 2 -19 -1 -34 -6 -33 -6
1 -11 -9 -11 -21 -1 -12 -13 -39 -28 -60 -27 -40 -34 -62 -15 -50 6 3 4 -7 -4
-22 -9 -19 -11 -36 -6 -49 8 -18 8 -18 6 4 -1 13 4 26 12 29 20 7 7 -39 -25
-89 -26 -41 -44 -50 -44 -21 0 15 -2 15 -11 2 -8 -11 -9 -8 -4 13 4 22 3 27
-7 21 -22 -14 -40 -13 -34 1 9 23 -12 27 -26 5 -17 -27 -27 -26 -21 3 5 22 5
22 -15 -2 -18 -22 -20 -22 -19 -5 0 38 -3 43 -20 37 -11 -4 -14 -3 -9 5 10 16
0 15 -29 -4 -25 -16 -25 -16 -21 16 2 18 10 36 17 41 11 7 11 9 -1 9 -9 0 -27
-8 -40 -17 l-25 -17 20 24 20 24 -25 -15 c-33 -21 -54 -14 -40 12 7 13 7 19 0
19 -5 0 -10 -5 -10 -11 0 -5 -5 -7 -11 -4 -6 4 -21 -3 -35 -16 -13 -12 -27
-19 -31 -15 -5 4 0 13 10 20 17 13 25 32 8 22 -20 -13 -41 7 -42 38 0 29 -1
30 -10 8 -5 -13 -16 -31 -25 -40 -16 -15 -17 -14 -10 19 4 25 2 40 -7 48 -8 6
-16 8 -19 5 -3 -2 -17 -7 -32 -10 -30 -5 -35 10 -8 25 10 6 12 11 4 11 -8 0
-10 5 -6 13 6 10 4 10 -7 0 -20 -19 -39 -15 -39 8 0 11 -5 17 -10 14 -6 -4 -7
-11 -4 -17 4 -7 2 -8 -4 -4 -14 8 -9 73 8 107 8 17 3 14 -20 -11 -18 -20 -27
-26 -21 -14 8 18 6 27 -11 49 -16 21 -23 24 -30 13 -7 -9 -8 -7 -5 10 3 12 1
22 -4 22 -5 0 -9 -6 -9 -14 0 -8 -4 -18 -10 -21 -24 -15 -7 36 23 66 17 18 25
28 16 21 -17 -13 -49 -7 -49 10 0 5 -4 7 -9 4 -5 -4 -7 4 -3 16 3 13 1 19 -5
15 -6 -4 -14 1 -17 10 -5 11 1 23 16 35 l23 17 -22 -6 c-16 -3 -23 -1 -23 8 0
11 -2 11 -10 -1 -8 -12 -10 -11 -10 5 0 12 5 26 11 32 9 9 7 11 -9 6 -19 -4
-20 -1 -17 28 l4 34 -22 -35 c-17 -27 -23 -31 -25 -17 -2 10 2 25 10 34 11 15
11 16 -5 10 -10 -4 -16 -3 -13 1 3 5 7 20 10 34 4 24 2 26 -30 25 -19 -1 -34
-5 -34 -9 0 -4 5 -8 11 -8 5 0 7 -5 3 -11 -5 -8 -10 -7 -16 4 -5 11 -2 28 12
51 20 36 16 47 -9 24 -11 -11 -14 -10 -18 0 -3 6 -10 9 -16 5 -7 -3 -3 4 8 17
l20 23 -21 -11 c-19 -10 -21 -8 -20 21 1 18 5 39 11 47 6 11 1 9 -20 -4 l-30
-19 17 25 c15 22 15 27 3 32 -8 3 -17 0 -21 -6 -5 -7 -2 -8 6 -3 8 5 11 4 6
-3 -10 -16 -38 -2 -32 15 3 8 1 11 -4 8 -6 -3 -10 -12 -10 -19 0 -8 -8 -20
-17 -27 -16 -13 -17 -12 -5 3 8 9 11 22 7 28 -4 6 -1 18 7 27 9 12 9 15 1 9
-15 -8 -17 3 -4 23 6 9 5 19 -2 26 -9 9 -14 10 -19 2 -4 -6 -10 -8 -15 -4 -4
5 3 17 17 27 l25 19 -23 -2 c-13 -1 -28 -10 -33 -19 -11 -21 -33 -13 -25 8 3
9 -2 14 -15 14 -19 0 -19 1 -3 28 12 20 7 17 -20 -12 -39 -42 -45 -36 -21 20
13 33 13 36 -1 30 -13 -5 -15 -1 -12 18 5 26 -16 44 -28 24 -4 -7 -9 -6 -15 3
-7 12 -9 12 -9 0 0 -11 -3 -11 -15 -1 -8 7 -23 9 -32 5 -31 -12 -105 -16 -98
-5 9 14 -7 12 -49 -5 l-37 -16 12 23 c11 22 11 22 -7 8 -10 -8 -30 -21 -44
-29 -23 -13 -24 -13 -11 2 20 25 1 21 -27 -5 -23 -22 -24 -22 -14 -2 9 16 8
21 -4 21 -7 0 -14 -6 -14 -12 0 -7 -8 -19 -17 -26 -15 -12 -16 -12 -8 1 4 8
-16 -9 -44 -38 -29 -28 -57 -49 -63 -46 -5 3 -15 -2 -23 -12 -7 -11 -18 -20
-24 -20 -6 -1 -15 -2 -21 -3 -5 0 -10 -15 -10 -32 0 -36 -82 -138 -108 -135
-16 3 -97 -73 -94 -87 1 -4 -17 -24 -40 -45 -41 -36 -72 -69 -104 -108 -15
-19 -16 -19 -9 0 6 20 6 20 -17 0 l-22 -19 17 27 c13 20 13 26 3 22 -7 -3 -21
-23 -31 -45 -18 -40 -29 -47 -40 -29 -10 16 -25 1 -18 -18 3 -9 3 -14 -2 -10
-9 8 -26 -21 -44 -74 -7 -20 -28 -44 -52 -61 -24 -16 -37 -32 -33 -39 4 -7 3
-8 -5 -4 -6 4 -14 0 -18 -11 -4 -10 -15 -24 -25 -31 -10 -7 -23 -23 -28 -35
-8 -16 -5 -14 10 6 12 15 26 27 32 27 6 0 6 -6 -2 -15 -6 -8 -9 -18 -6 -23 3
-5 -5 -31 -19 -56 -14 -26 -25 -52 -24 -59 0 -7 5 -1 11 13 10 22 12 23 16 6
2 -11 -2 -24 -9 -30 -8 -6 -21 -20 -29 -31 l-15 -20 24 20 24 20 -17 -32 c-19
-37 -20 -43 -7 -43 5 0 13 9 16 21 4 11 9 18 12 16 2 -3 -1 -16 -8 -29 -7 -12
-13 -34 -14 -48 -1 -14 -5 -32 -10 -40 -6 -10 -4 -12 8 -7 21 8 13 -16 -22
-63 -15 -20 -19 -29 -8 -21 20 16 21 12 6 -26 -20 -50 -28 -94 -16 -86 6 4 -4
-20 -22 -52 -35 -62 -51 -126 -27 -106 8 7 17 23 21 38 3 14 8 23 11 20 7 -7
-29 -107 -38 -107 -5 0 -8 -4 -8 -10 0 -5 7 -7 16 -3 14 5 14 2 -2 -23 -11
-15 -13 -25 -6 -21 32 20 -9 -55 -42 -77 -25 -16 -31 -12 -27 16 1 10 -42 6
-58 -6 -12 -9 -13 -5 -8 27 5 35 4 37 -10 25 -15 -11 -16 -11 -9 6 7 19 6 19
-13 2 -19 -17 -39 -7 -26 14 11 19 -19 10 -42 -12 -25 -23 -44 -18 -23 7 7 8
9 15 5 15 -4 0 -1 8 6 18 13 15 12 16 -3 3 -10 -7 -15 -17 -12 -22 3 -5 -2 -6
-10 -3 -9 3 -15 9 -14 12 3 28 -4 32 -23 11 l-20 -24 5 28 c7 28 2 31 -53 29
-23 -1 -23 -1 -6 18 17 19 17 19 -4 15 -14 -2 -24 2 -28 11 -5 13 -8 13 -15 2
-6 -8 -8 5 -4 40 5 51 4 52 -12 35 -9 -10 -14 -14 -9 -9 9 13 9 26 -1 26 -5 0
-14 -10 -21 -22 -11 -23 -11 -23 -5 2 4 14 9 31 12 39 4 10 1 13 -11 8 -10 -4
-17 -1 -17 6 0 8 -4 6 -10 -3 -8 -12 -10 -11 -10 7 0 12 10 29 23 38 13 10 16
15 7 14 -22 -3 -51 12 -44 23 3 5 -2 15 -12 22 -13 10 -14 15 -5 21 9 5 7 11
-9 22 -17 12 -19 18 -9 29 10 12 9 13 -4 8 -12 -4 -15 1 -12 22 l3 28 -21 -24
c-19 -24 -20 -24 -15 -3 6 23 -17 41 -26 20 -2 -7 -5 -4 -5 7 -1 12 4 16 13
13 8 -3 16 2 19 13 4 15 -1 18 -23 18 -21 -1 -27 -5 -23 -17 4 -13 3 -14 -5
-2 -8 11 -6 24 5 45 l16 30 -28 -18 c-15 -10 -24 -13 -21 -7 4 6 2 11 -5 11
-7 0 -4 7 7 15 19 15 19 15 -1 8 -11 -3 -17 -3 -13 2 10 11 -11 47 -23 39 -7
-4 -7 1 0 15 11 20 5 26 -21 22 -5 0 -8 3 -8 9 0 5 -7 6 -17 3 -12 -5 -14 -3
-8 8 20 31 12 55 -17 50 -15 -2 -8 18 10 28 15 9 15 10 -5 11 -13 0 -23 -4
-23 -10 0 -5 -4 -10 -10 -10 -5 0 -10 7 -10 15 0 9 -6 12 -17 8 -15 -5 -16 -3
-5 8 6 7 12 18 12 23 -1 6 -12 -2 -26 -19 -25 -29 -25 -29 -18 -5 4 14 9 31
12 39 3 9 1 12 -6 7 -8 -5 -12 0 -12 13 0 11 -5 23 -12 27 -7 5 -8 3 -3 -6 6
-10 4 -11 -6 -4 -22 13 -44 14 -93 5 -31 -6 -47 -5 -49 3 -3 7 -11 3 -22 -9
-9 -11 -13 -14 -9 -6 5 11 2 13 -14 9 -12 -4 -20 -2 -16 3 3 5 1 9 -5 9 -5 0
-13 -5 -16 -11 -4 -6 -13 -8 -20 -5 -8 3 -19 -2 -26 -10 -10 -12 -14 -12 -20
-2 -6 9 -10 8 -15 -5 -3 -9 -12 -17 -19 -17 -7 0 -18 -7 -25 -15 -7 -8 -17
-12 -23 -8 -5 3 -7 1 -4 -4 7 -11 -26 -47 -35 -38 -3 3 -11 -3 -19 -12 -13
-17 -13 -17 6 -3 20 14 20 14 1 -7 -16 -19 -36 -23 -36 -7 0 3 5 2 12 -2 7 -4
8 -3 4 5 -11 17 -26 3 -26 -23 0 -13 -18 -42 -41 -67 -23 -24 -38 -37 -33 -29
4 8 -4 3 -18 -11 -13 -14 -36 -34 -51 -44 -15 -9 -25 -21 -22 -25 5 -9 -45
-46 -57 -42 -5 1 -7 -2 -5 -7 4 -14 -60 -88 -76 -88 -9 0 -13 7 -11 16 3 9 -3
1 -12 -17 -14 -24 -22 -31 -37 -26 -13 4 -17 2 -13 -5 4 -6 2 -11 -3 -11 -6 0
-11 -7 -11 -15 0 -8 -4 -15 -10 -15 -5 0 -10 -9 -10 -20 0 -12 -25 -45 -60
-78 -56 -54 -77 -83 -47 -66 8 6 8 3 -1 -9 -8 -9 -11 -21 -7 -27 4 -6 0 -22
-9 -35 -18 -28 -20 -39 -6 -30 6 3 10 -1 10 -10 0 -8 -6 -18 -14 -21 -8 -3
-17 -13 -20 -21 -6 -14 -4 -14 10 -2 16 13 16 12 6 -8 -15 -28 -15 -36 0 -27
7 4 8 3 4 -5 -12 -19 -15 -82 -4 -75 5 3 2 -9 -8 -27 -18 -35 -21 -47 -28
-112 -2 -20 -12 -49 -21 -64 -25 -38 -37 -93 -19 -86 16 6 10 -20 -10 -46 -8
-11 -8 -13 1 -7 7 4 13 3 13 -3 0 -5 -5 -13 -11 -17 -8 -5 -6 -10 5 -16 9 -5
16 -14 16 -21 0 -9 -2 -9 -8 0 -5 8 -15 0 -30 -23 -12 -19 -18 -34 -13 -34 5
0 12 8 15 17 6 15 9 15 16 3 5 -8 7 -17 4 -22 -2 -4 -5 -24 -6 -45 -1 -21 -3
-32 -6 -25 -2 7 -8 9 -14 6 -5 -4 -4 4 3 17 12 23 11 23 -6 9 -14 -12 -19 -12
-23 -2 -3 10 -7 10 -18 1 -11 -9 -14 -9 -14 0 0 7 -4 9 -10 6 -5 -3 -10 1 -10
11 0 13 -6 15 -31 10 -28 -5 -31 -4 -26 14 5 20 -2 24 -37 20 -11 -1 -15 3
-12 9 11 17 -15 13 -36 -6 -20 -18 -25 -5 -6 16 9 10 9 12 1 7 -6 -3 -17 2
-23 11 -8 13 -13 14 -16 6 -8 -19 -27 -16 -20 3 10 25 -2 34 -30 23 -21 -8
-25 -7 -21 5 6 14 -18 31 -37 27 -5 -1 -6 14 -3 34 3 21 2 33 -4 30 -5 -4 -9
-1 -9 5 0 6 -4 8 -10 5 -6 -4 -7 1 -3 11 5 13 2 15 -15 9 -28 -8 -31 21 -4 41
14 12 15 13 1 8 -22 -7 -52 49 -36 65 8 8 7 11 -5 11 -15 0 -32 32 -29 55 1 6
-5 2 -13 -8 -13 -16 -14 -14 -12 20 2 37 1 39 -27 37 -21 -2 -26 1 -18 9 15
15 14 27 -3 21 -13 -5 -41 46 -39 74 1 11 -17 17 -39 13 -5 0 -8 12 -8 29 0
16 -5 30 -11 30 -8 0 -7 6 2 17 13 15 12 15 -8 5 -28 -15 -36 -15 -27 0 5 8 2
9 -10 5 -14 -6 -15 -3 -6 16 l11 22 -20 -22 c-24 -28 -35 -30 -21 -4 5 11 7
28 2 39 -6 18 -15 20 -95 19 -48 -1 -87 1 -87 5 0 3 -13 0 -30 -8 -16 -9 -34
-13 -40 -9 -6 3 -13 -1 -16 -9 -3 -9 -9 -14 -14 -11 -4 2 -20 -9 -35 -25 -15
-16 -32 -27 -37 -24 -5 3 -7 0 -6 -7 2 -7 -6 -13 -16 -14 -13 0 -22 -10 -27
-28 -8 -30 -47 -77 -65 -77 -6 0 -41 -34 -78 -75 -72 -80 -110 -109 -100 -78
3 10 -3 4 -13 -13 -10 -17 -23 -29 -29 -27 -6 2 -19 -13 -30 -34 -10 -21 -36
-56 -58 -79 -38 -39 -46 -63 -46 -132 0 -12 -5 -22 -11 -22 -6 0 -9 -7 -6 -15
4 -8 2 -17 -3 -20 -6 -4 -10 -11 -10 -16 0 -6 3 -8 8 -6 8 6 9 -63 0 -78 -9
-15 -22 -78 -19 -93 1 -7 -6 -28 -17 -45 -23 -40 -34 -80 -20 -71 8 5 8 -2 3
-22 -5 -16 -8 -40 -8 -54 0 -14 -2 -20 -4 -13 -2 7 -11 9 -19 6 -8 -3 -24 3
-34 14 -11 13 -28 19 -45 18 -20 -3 -25 0 -21 12 5 12 1 14 -20 10 -22 -4 -25
-2 -21 15 5 17 2 19 -19 15 -17 -3 -24 0 -24 11 0 12 -4 12 -26 -3 -15 -9 -23
-12 -20 -6 4 6 1 18 -7 25 -11 11 -17 12 -26 3 -10 -9 -12 -8 -9 8 2 15 -2 20
-19 19 -13 0 -23 5 -23 12 0 7 -9 16 -20 19 -15 5 -20 14 -18 33 2 17 -1 26
-10 24 -6 -1 -12 5 -12 13 0 9 -6 12 -15 9 -18 -7 -20 17 -2 35 6 8 7 11 1 8
-6 -3 -17 9 -24 28 -8 19 -17 35 -22 35 -4 0 -7 3 -7 8 4 21 -2 34 -14 29 -10
-4 -13 3 -12 24 1 22 -2 28 -14 27 -10 -2 -15 4 -15 14 1 10 -4 14 -12 11 -10
-3 -16 5 -20 26 -4 17 -10 28 -15 25 -5 -3 -6 2 -3 11 5 12 2 16 -12 13 -14
-2 -20 4 -22 25 -2 15 -9 27 -15 27 -7 0 -6 4 3 10 9 6 10 10 3 10 -6 0 -15
-5 -19 -11 -9 -16 -27 17 -19 34 4 6 -3 1 -15 -12 l-21 -25 5 25 c11 44 -4 52
-98 52 -54 0 -91 -5 -101 -13 -11 -9 -15 -9 -15 -1 0 7 -21 -7 -46 -31 -25
-23 -53 -43 -61 -43 -9 0 -17 -8 -19 -17 -3 -23 -204 -226 -204 -207 -1 10 -5
8 -16 -6 -8 -11 -19 -19 -23 -18 -5 1 -16 -16 -26 -37 -10 -22 -33 -53 -51
-70 -24 -21 -34 -40 -36 -63 -2 -52 -3 -56 -15 -68 -6 -6 -9 -29 -6 -56 2 -24
1 -52 -3 -61 -3 -9 -9 -33 -11 -52 -2 -18 -10 -48 -18 -65 -8 -16 -15 -39 -15
-50 0 -46 -3 -55 -16 -44 -6 5 -22 12 -35 14 -12 3 -26 9 -29 15 -4 6 -13 10
-21 8 -9 -2 -13 4 -11 14 2 13 -2 16 -14 11 -9 -3 -20 0 -24 7 -7 11 -11 11
-24 0 -14 -11 -16 -10 -10 5 5 13 4 16 -4 11 -7 -4 -12 -2 -12 5 0 8 -4 8 -16
-2 -14 -11 -15 -10 -12 7 2 15 -2 18 -22 16 -14 -2 -22 -1 -18 3 3 4 -2 15
-13 26 -11 11 -17 24 -14 29 7 12 -18 40 -35 40 -6 0 -10 6 -9 13 3 16 -42
118 -50 113 -3 -2 -12 2 -19 10 -7 8 -8 14 -2 14 5 0 10 5 10 10 0 6 -4 9 -9
8 -5 -2 -9 -1 -8 2 0 3 -11 18 -26 33 -14 16 -23 35 -21 42 3 8 -2 12 -13 12
-11 -1 -18 4 -17 16 1 9 -3 17 -8 17 -6 0 -7 7 -4 16 5 14 4 15 -8 5 -11 -9
-15 -8 -20 5 -5 14 -9 14 -23 3 -12 -10 -15 -10 -9 -1 4 7 4 21 1 32 -5 17
-15 20 -65 19 -32 -1 -62 1 -68 5 -6 3 -13 2 -17 -4 -3 -5 -15 -10 -26 -10
-10 0 -36 -16 -57 -35 -22 -19 -42 -32 -45 -28 -4 3 -11 -6 -17 -21 -11 -30
-168 -183 -182 -178 -5 1 -11 -5 -14 -13 -3 -8 -10 -13 -14 -10 -4 3 -15 -10
-23 -28 -9 -18 -27 -43 -41 -56 -21 -20 -38 -63 -41 -103 0 -3 -3 -9 -7 -13
-3 -3 -4 -25 -1 -47 2 -22 1 -48 -3 -57 -4 -9 -9 -29 -11 -46 -3 -16 -11 -41
-18 -55 -7 -14 -13 -44 -12 -65 0 -22 -5 -51 -12 -64 -8 -14 -9 -21 -2 -17 7
5 11 -11 11 -48 0 -31 4 -56 9 -56 6 0 24 -15 42 -33 18 -18 29 -25 26 -14 -4
11 -1 17 7 17 8 0 16 -5 18 -11 2 -6 18 2 36 19 18 17 32 27 33 24 1 -18 29
87 30 118 2 19 7 40 12 47 5 7 10 47 12 90 3 83 12 131 27 150 5 7 7 17 3 23
-3 5 -1 10 4 10 6 0 11 7 11 16 0 8 4 12 10 9 5 -3 10 3 10 15 0 12 4 18 10
15 5 -3 7 -22 4 -41 -3 -22 -1 -34 7 -34 9 0 9 -3 0 -14 -11 -13 -9 -55 3 -74
3 -5 -1 -35 -8 -69 -7 -36 -8 -65 -3 -74 6 -9 2 -35 -10 -71 -11 -31 -16 -55
-11 -52 10 6 1 -58 -18 -135 -7 -29 -11 -58 -7 -64 3 -6 1 -7 -5 -3 -16 10
-15 -7 0 -22 9 -9 10 -15 2 -20 -16 -10 -25 -42 -13 -42 11 0 10 -6 -7 -68 -5
-16 -3 -22 7 -20 14 3 15 -20 2 -52 -3 -8 -8 -25 -10 -37 -2 -12 -15 -47 -28
-78 -14 -30 -25 -63 -25 -73 0 -9 -6 -28 -13 -42 -7 -14 -21 -51 -32 -83 -11
-33 -28 -63 -37 -68 -10 -5 -18 -16 -18 -23 0 -8 -7 -19 -15 -26 -9 -7 -14
-18 -12 -24 3 -6 -1 -22 -8 -36 -7 -14 -17 -40 -23 -58 -9 -27 -8 -33 2 -29
10 4 13 -2 12 -19 0 -13 -4 -24 -7 -24 -4 0 -9 -8 -12 -19 -5 -20 6 -44 34
-72 11 -11 19 -24 19 -30 0 -5 5 -7 10 -4 6 3 10 1 10 -5 0 -6 4 -8 10 -5 5 3
16 3 22 -1 24 -15 49 -11 64 10 8 11 14 17 14 12 0 -5 9 1 20 14 11 13 20 27
20 32 0 15 29 40 39 34 5 -3 11 13 15 35 6 40 71 189 87 199 8 6 59 104 59
114 0 4 19 46 42 94 50 102 50 103 53 164 4 57 14 78 27 54 5 -9 6 -22 2 -29
-5 -8 -2 -7 9 2 15 12 17 10 17 -28 0 -26 4 -40 10 -36 6 3 10 -4 10 -17 0
-13 4 -29 9 -37 5 -7 5 -27 1 -43 -6 -19 -5 -26 2 -22 7 5 9 -6 6 -30 -3 -27
-1 -35 9 -32 7 3 12 2 12 -2 -3 -21 2 -42 10 -38 4 3 7 -12 6 -34 -1 -22 2
-37 6 -34 10 6 11 3 14 -50 1 -21 8 -42 15 -46 6 -4 12 -23 13 -43 0 -20 4
-34 8 -31 4 2 6 -2 5 -9 -2 -24 26 -117 35 -112 4 3 11 -6 15 -20 5 -20 9 -23
20 -14 9 8 14 8 14 1 0 -6 -4 -14 -10 -17 -6 -4 -5 -11 3 -19 6 -8 15 -12 18
-10 4 2 23 -3 42 -11 24 -10 38 -11 42 -4 5 7 11 6 21 -2 10 -8 14 -8 14 0 0
6 11 11 25 11 16 0 25 6 25 15 0 8 9 15 19 15 31 0 61 99 37 119 -8 7 -12 21
-8 33 4 16 2 19 -8 13 -10 -6 -12 0 -7 29 4 27 2 39 -9 43 -7 3 -14 12 -14 20
0 8 -4 12 -9 9 -4 -3 -8 5 -7 17 1 12 -4 43 -11 69 -6 25 -10 55 -8 65 1 10
-4 25 -12 35 -8 9 -15 23 -17 31 -1 8 -8 22 -15 30 -9 12 -10 21 -1 36 8 15 8
21 0 21 -6 0 -8 4 -5 10 3 5 1 10 -5 10 -7 0 -10 6 -7 13 3 7 -1 24 -9 38 -7
13 -13 34 -14 47 0 26 -23 55 -35 44 -4 -4 -3 3 4 15 7 14 8 24 1 28 -7 4 -7
13 0 26 9 15 7 19 -5 19 -11 0 -15 11 -15 40 0 22 -4 48 -10 58 -19 34 -60
146 -60 164 0 11 -4 17 -9 13 -6 -3 -10 3 -10 12 -1 39 -5 53 -13 53 -5 0 -7
20 -5 45 3 28 1 45 -7 48 -8 3 -8 8 1 18 7 9 13 44 14 80 1 71 18 167 30 175
5 2 15 -8 23 -24 9 -17 29 -43 46 -58 16 -16 30 -35 30 -42 0 -7 4 -10 10 -7
5 3 10 -1 10 -10 0 -9 5 -13 10 -10 6 3 10 1 10 -4 0 -6 7 -11 15 -11 8 0 22
-11 31 -25 9 -14 21 -22 26 -19 14 9 91 -17 102 -34 7 -12 10 -12 17 -1 7 11
9 11 9 -2 0 -9 7 -22 15 -29 11 -9 15 -9 15 -1 0 9 5 9 20 1 11 -6 25 -8 31
-5 5 4 17 1 26 -7 9 -7 19 -11 22 -10 32 19 41 22 41 12 0 -5 9 -19 19 -29 20
-20 20 -20 23 1 3 21 4 21 20 5 16 -17 18 -17 38 3 11 11 24 20 30 20 5 0 10
7 10 16 0 8 4 12 10 9 5 -3 10 2 10 13 0 10 3 22 7 26 4 3 8 12 9 19 1 7 4 38
8 70 4 31 11 57 16 57 8 0 9 3 13 115 3 79 25 178 37 170 5 -3 6 5 2 17 -3 14
-2 19 6 14 7 -4 12 -1 12 9 0 9 5 13 10 10 6 -3 10 5 10 19 0 14 5 28 12 32 8
5 10 -7 5 -44 -4 -35 -2 -52 6 -56 8 -3 9 -7 2 -13 -9 -7 -11 -26 -6 -81 1 -7
6 -10 12 -6 7 4 7 -1 -1 -16 -6 -12 -10 -31 -7 -41 3 -10 1 -22 -5 -25 -5 -3
-7 -12 -5 -18 3 -7 1 -19 -3 -26 -5 -8 -2 -23 7 -37 11 -16 12 -27 5 -36 -5
-6 -14 -28 -20 -47 -5 -19 -13 -44 -17 -55 -6 -16 -5 -17 4 -5 9 12 10 6 6
-25 -10 -62 -13 -78 -20 -105 -4 -14 -7 -32 -7 -40 0 -8 -5 -21 -11 -28 -5 -6
-6 -12 -2 -12 4 0 1 -8 -6 -17 -8 -9 -9 -14 -3 -10 19 11 26 -24 9 -43 -8 -9
-15 -27 -15 -41 0 -19 2 -21 10 -9 15 23 12 -3 -5 -43 -18 -44 -19 -58 -2 -55
12 3 13 -32 1 -62 -4 -8 -9 -30 -11 -49 -2 -19 -12 -46 -22 -60 -10 -14 -23
-48 -30 -76 -15 -65 -31 -105 -42 -105 -5 0 -8 -3 -7 -8 5 -16 -14 -82 -21
-77 -5 2 -9 -1 -8 -8 1 -32 -4 -47 -17 -47 -7 0 -19 -13 -26 -30 -7 -16 -18
-34 -25 -40 -8 -6 -11 -18 -9 -25 3 -7 -2 -25 -11 -39 -10 -14 -14 -26 -11
-26 3 0 0 -16 -8 -35 -12 -28 -12 -35 -2 -35 7 0 13 -12 13 -30 0 -16 -4 -27
-8 -25 -14 9 -16 -46 -2 -61 8 -8 11 -14 6 -14 -4 0 5 -11 20 -25 15 -14 27
-31 27 -38 0 -7 4 -6 10 3 8 13 10 13 10 -2 0 -11 5 -15 14 -12 8 3 17 0 21
-6 6 -9 9 -9 15 0 5 8 12 7 24 -5 9 -9 16 -12 16 -5 0 6 11 16 25 22 14 6 25
18 25 26 0 11 3 12 14 3 11 -9 13 -6 13 16 0 14 8 32 17 38 9 7 16 18 16 25 0
9 3 10 14 1 11 -9 14 -3 19 34 8 55 77 202 115 243 6 7 12 20 12 28 0 8 4 14
9 14 4 0 14 21 21 48 7 26 19 59 27 74 7 15 13 29 11 30 -1 2 10 21 23 43 43
70 63 125 64 178 0 29 5 61 12 71 10 18 11 17 18 -13 5 -23 10 -29 18 -22 9 7
12 -4 12 -41 -1 -43 1 -47 12 -31 12 16 13 16 10 -7 -2 -14 2 -38 8 -55 8 -18
9 -38 4 -50 -11 -28 -11 -37 1 -30 11 7 13 -3 11 -50 -2 -23 0 -27 8 -15 9 12
11 10 12 -10 1 -14 2 -31 2 -38 -1 -9 3 -10 11 -3 9 8 12 1 10 -28 -1 -21 -5
-45 -10 -52 -6 -12 -5 -12 8 -1 14 12 16 10 11 -10 -4 -18 -3 -20 6 -8 9 12
11 9 12 -15 1 -16 0 -41 -1 -54 -1 -14 2 -21 9 -17 7 5 11 -2 11 -18 0 -14 4
-28 10 -31 5 -3 7 -19 3 -35 -3 -19 -1 -30 5 -30 6 0 9 -7 6 -15 -4 -8 -1 -15
6 -15 6 0 10 -8 9 -17 -3 -25 12 -74 21 -68 4 2 13 -7 20 -20 10 -19 16 -22
27 -14 15 13 17 1 4 -20 -9 -15 8 -43 21 -35 4 3 25 -4 46 -14 35 -17 40 -17
50 -3 10 14 12 14 21 1 9 -13 12 -13 20 -1 5 8 16 11 25 8 10 -4 20 1 26 14 6
11 15 17 20 14 12 -8 46 43 58 89 9 31 8 41 -4 54 -9 8 -14 25 -11 38 3 16 0
21 -10 17 -12 -5 -13 2 -9 30 4 25 1 41 -9 51 -8 8 -15 19 -15 25 0 6 -7 8
-15 5 -11 -5 -13 0 -6 24 6 20 5 38 -3 54 -7 12 -13 48 -15 78 -2 34 -8 58
-17 63 -7 4 -18 26 -24 48 -7 25 -15 37 -22 33 -7 -5 -8 -2 -2 7 15 24 14 47
-2 63 -8 9 -13 20 -9 26 3 5 1 18 -4 29 -6 11 -14 37 -17 57 -7 45 -29 83 -36
62 -3 -7 -4 9 -3 37 2 31 -3 54 -11 63 -8 8 -14 34 -14 63 0 27 -3 49 -7 49
-5 0 -17 29 -28 65 -10 36 -23 65 -27 65 -4 0 -4 7 -1 17 5 11 3 14 -6 9 -9
-6 -12 -1 -9 20 2 18 -2 28 -9 27 -6 -1 -11 8 -12 20 -1 43 -4 57 -14 57 -5 0
-7 23 -4 55 3 30 2 54 -1 53 -19 -2 -21 4 -7 26 12 18 17 52 18 124 1 63 7
105 15 114 7 9 10 23 6 32 -4 10 -1 16 9 16 8 0 29 -24 46 -53 17 -28 31 -49
31 -45 0 14 40 -26 40 -40 0 -7 5 -10 10 -7 6 3 10 -3 10 -15 0 -12 5 -18 10
-15 6 3 10 1 10 -5 0 -6 8 -10 18 -8 11 3 25 -8 39 -31 22 -34 23 -35 24 -11
1 17 3 20 6 7 2 -9 9 -15 14 -11 5 3 22 -4 38 -16 21 -14 32 -17 37 -9 4 8 12
2 22 -17 14 -27 16 -27 23 -9 6 15 8 16 8 4 1 -9 8 -22 17 -30 13 -10 17 -10
24 0 6 11 8 11 12 0 3 -8 19 -13 41 -12 22 1 37 -4 37 -10 0 -7 5 -5 10 3 9
13 10 13 10 0 0 -9 3 -11 8 -4 14 20 41 24 45 6 4 -14 6 -13 12 6 9 27 25 29
25 2 0 -11 6 -19 13 -18 6 2 11 -3 9 -10 -1 -8 2 -11 7 -8 5 4 12 0 14 -6 3
-7 6 -1 6 15 1 31 22 33 35 2 8 -20 8 -20 18 0 5 11 22 26 39 34 16 7 29 19
29 27 0 9 5 12 10 9 6 -3 11 4 12 17 2 37 3 42 16 65 7 13 10 33 6 47 -3 13
-1 27 5 30 5 4 8 13 4 21 -3 9 1 23 8 32 15 18 17 27 22 153 5 109 34 233 53
226 9 -4 14 2 14 17 0 18 2 19 10 7 7 -11 10 -7 10 17 0 17 4 34 9 37 15 10
20 -19 10 -60 -11 -51 -11 -54 2 -52 6 2 14 -3 16 -10 3 -6 -3 -12 -12 -12 -9
0 -14 -4 -11 -9 3 -5 7 -29 7 -54 1 -26 6 -44 11 -41 5 3 6 -7 2 -23 -4 -15
-7 -37 -6 -48 0 -10 -4 -25 -9 -32 -6 -6 -8 -16 -6 -21 3 -4 2 -14 -3 -22 -5
-9 -5 -19 2 -27 5 -7 8 -20 4 -28 -3 -9 -2 -13 4 -10 12 8 13 -7 1 -20 -4 -6
-14 -32 -20 -60 -7 -27 -18 -57 -24 -65 -11 -13 -10 -13 7 0 18 14 18 13 11
-28 -4 -23 -9 -54 -11 -70 -7 -41 -11 -55 -18 -74 -4 -9 -5 -22 -1 -28 4 -6
-1 -21 -12 -32 -10 -12 -13 -19 -8 -16 6 4 11 -11 12 -38 2 -30 -2 -44 -10
-44 -8 0 -14 -15 -15 -37 -2 -28 0 -34 8 -23 8 12 10 11 10 -6 0 -11 -3 -24
-7 -28 -9 -8 -43 -116 -37 -116 3 0 9 12 14 26 6 14 16 24 23 21 14 -5 11 -55
-4 -74 -6 -6 -12 -28 -15 -48 -2 -20 -15 -56 -28 -78 -20 -38 -38 -95 -42
-137 -2 -29 -24 -71 -39 -76 -8 -4 -15 -10 -15 -16 0 -5 6 -6 13 -2 9 6 9 5 0
-8 -7 -8 -10 -18 -6 -21 3 -4 2 -12 -4 -19 -5 -7 -16 -33 -23 -57 -8 -25 -22
-46 -31 -48 -10 -3 -25 -23 -33 -44 -9 -21 -21 -39 -27 -39 -6 0 -8 -7 -5 -16
4 -9 -1 -28 -10 -41 -8 -14 -17 -39 -20 -55 -2 -17 -11 -42 -20 -56 -16 -24
-16 -25 6 -19 19 5 21 3 15 -16 -22 -73 -24 -134 -3 -120 7 4 9 0 5 -10 -3
-10 -2 -17 3 -17 6 0 10 -7 10 -16 0 -8 4 -13 9 -10 11 7 25 -23 22 -44 -2
-10 2 -9 13 5 15 20 15 20 16 -5 1 -14 4 -19 7 -12 7 17 23 15 45 -5 18 -16
18 -16 12 0 -5 13 -2 16 10 11 9 -3 16 -10 16 -15 0 -5 5 -9 11 -9 5 0 8 4 4
9 -3 5 4 13 16 16 11 4 18 13 15 20 -3 9 2 11 15 8 14 -4 19 0 19 13 0 17 1
17 13 0 12 -17 14 -16 14 14 0 22 7 39 21 51 12 9 22 25 22 35 0 16 1 16 15
-2 15 -19 16 -19 14 1 -2 11 4 40 11 65 7 25 13 53 12 64 0 10 2 15 5 12 7 -6
43 59 43 76 0 4 10 19 22 33 12 14 23 32 24 40 1 8 9 22 18 31 9 8 16 22 16
30 0 8 7 17 15 20 9 4 15 19 15 35 0 16 5 29 10 29 6 0 10 10 10 21 0 12 8 38
19 58 10 20 24 48 31 63 7 15 18 25 23 21 6 -3 7 -1 3 6 -4 6 2 28 13 47 12
19 21 44 21 54 0 10 5 20 11 22 6 2 12 34 13 73 3 101 39 160 38 63 l-1 -43
18 24 c18 23 18 23 17 -38 -1 -48 2 -58 10 -46 9 12 13 2 18 -47 5 -43 10 -57
17 -47 5 9 9 10 9 2 0 -6 -4 -15 -10 -18 -6 -4 -5 -18 3 -38 8 -19 10 -42 6
-57 -13 -44 -11 -54 6 -40 9 7 18 10 22 6 3 -3 1 -6 -4 -6 -8 0 -8 -9 0 -30 7
-20 14 -25 19 -17 4 7 8 7 8 2 0 -6 -8 -22 -17 -35 -16 -24 -16 -24 2 -10 17
14 18 13 12 -25 -6 -37 -5 -38 9 -20 13 18 14 17 8 -15 -4 -24 -3 -31 4 -21 7
10 11 5 14 -18 3 -18 1 -34 -4 -37 -4 -3 -8 -14 -8 -25 0 -13 7 -19 21 -19 15
0 19 -5 15 -15 -3 -8 -3 -22 1 -31 5 -13 7 -13 14 -2 6 9 9 7 9 -9 0 -12 -4
-24 -9 -27 -4 -3 -6 -17 -4 -31 3 -13 9 -22 15 -19 5 3 6 -5 2 -20 -5 -22 -3
-25 11 -20 14 6 16 4 7 -12 -5 -11 -6 -28 -1 -39 6 -17 8 -15 9 10 0 25 2 27
10 13 7 -11 6 -25 -2 -42 -6 -15 -8 -29 -3 -34 4 -4 10 -1 13 7 3 9 10 2 18
-19 12 -27 16 -30 29 -20 12 10 15 10 15 -3 0 -9 -4 -19 -10 -22 -6 -3 -10
-11 -10 -16 0 -6 5 -7 10 -4 6 3 10 -2 10 -12 0 -14 2 -15 9 -5 7 11 11 11 23
-2 10 -9 19 -11 27 -5 6 5 9 6 6 3 -3 -4 7 -13 21 -20 22 -12 28 -11 42 2 14
15 17 15 28 0 12 -17 31 -5 20 12 -2 4 4 8 15 8 10 0 19 -4 19 -8 0 -17 21 -7
31 16 7 14 17 22 24 20 14 -6 55 46 55 69 0 9 4 18 10 22 5 3 7 12 3 20 -3 9
0 22 7 30 11 13 10 14 -4 9 -12 -4 -16 0 -16 16 0 11 -4 19 -9 15 -6 -3 -6 7
-1 26 8 26 7 30 -6 25 -12 -5 -15 2 -14 32 3 65 1 71 -19 65 -16 -4 -19 -1
-14 16 4 16 2 20 -10 15 -13 -5 -14 0 -7 30 5 23 4 36 -2 36 -6 0 -8 7 -5 15
4 8 2 17 -4 21 -6 3 -8 13 -5 21 3 8 2 12 -3 9 -5 -3 -8 19 -7 50 1 46 -3 60
-21 80 -21 23 -28 43 -24 67 1 5 -3 6 -8 3 -12 -8 -23 23 -14 37 12 19 12 37
1 37 -6 0 -8 9 -5 20 3 10 0 18 -5 17 -6 -1 -12 13 -14 31 -2 18 -9 42 -14 53
-6 11 -8 24 -5 29 3 6 1 10 -5 10 -7 0 -10 12 -8 28 2 19 -1 26 -11 24 -8 -2
-11 3 -8 13 4 8 2 15 -3 15 -6 0 -10 -4 -10 -10 0 -5 -4 -10 -9 -10 -6 0 -4
12 4 27 10 19 11 31 4 39 -7 9 -7 19 1 33 9 17 8 21 -4 21 -22 0 -40 38 -26
55 8 10 8 15 0 20 -7 4 -10 15 -7 24 2 10 -2 26 -9 35 -7 10 -10 24 -7 32 3 8
0 14 -6 14 -6 0 -11 5 -11 12 0 24 -33 97 -41 92 -13 -8 -11 10 3 24 9 9 9 12
-3 12 -10 0 -15 10 -14 28 0 16 -5 26 -12 24 -15 -2 -16 7 -4 27 6 9 4 19 -5
29 -9 8 -13 21 -10 28 3 8 -1 14 -9 14 -14 0 -14 15 -2 92 3 21 1 25 -12 20
-14 -5 -14 -4 -2 11 12 16 12 17 -5 11 -17 -5 -17 -4 -3 8 9 7 20 31 24 53 5
22 9 46 11 53 1 6 -2 12 -7 12 -6 0 -7 5 -3 12 4 7 6 34 5 61 -1 26 3 55 9 63
10 11 10 14 0 14 -9 0 -8 5 3 18 9 10 15 28 13 39 -3 15 0 20 12 18 9 -2 21
-4 25 -4 5 -1 5 -6 2 -11 -3 -6 -1 -10 5 -10 7 0 10 -5 8 -12 -3 -7 6 -23 19
-36 14 -13 22 -30 19 -38 -3 -8 -2 -13 2 -13 29 5 40 -3 35 -23 -5 -22 -5 -22
9 -4 13 16 14 15 12 -20 -2 -22 0 -29 2 -16 3 12 10 22 16 22 6 0 8 -9 5 -21
-4 -14 -2 -19 8 -15 8 2 16 -4 19 -17 5 -18 8 -20 16 -7 9 13 10 13 10 0 0
-13 1 -13 10 0 8 13 10 12 10 -3 0 -10 4 -16 10 -12 5 3 13 -9 18 -27 l9 -33
11 35 c8 27 10 30 11 12 1 -13 5 -20 11 -17 5 3 10 1 10 -6 0 -7 3 -9 6 -6 4
4 19 -2 34 -13 19 -13 30 -16 38 -8 7 7 15 2 28 -17 16 -25 19 -26 25 -9 7 18
8 18 8 -1 1 -27 40 -52 52 -33 7 11 9 11 9 -1 0 -7 6 -11 14 -8 8 3 17 1 19
-6 3 -9 8 -9 19 1 13 10 19 10 32 -3 9 -9 20 -14 25 -11 5 4 12 0 14 -6 3 -8
6 -6 6 5 1 9 8 17 16 17 8 0 15 8 15 18 1 11 6 7 16 -13 8 -16 12 -22 9 -12
-2 9 0 17 5 17 5 0 6 8 3 17 -5 12 -2 15 10 10 13 -5 17 -1 17 20 0 21 3 23
14 14 12 -10 14 -7 11 18 -3 25 0 31 14 31 10 0 23 -12 30 -27 l12 -26 15 29
c8 16 20 34 26 39 8 7 8 6 3 -5 -6 -11 -3 -10 12 3 11 9 25 17 31 17 6 0 9 7
6 15 -7 18 12 20 20 3 3 -7 5 1 3 17 -2 19 4 38 14 49 10 10 15 24 12 32 -3 8
1 14 8 14 11 0 11 3 -1 10 -8 5 -10 10 -4 10 6 0 9 13 6 30 -2 16 -1 38 3 47
5 10 7 27 6 39 -1 11 5 26 13 34 10 8 14 21 10 36 -3 13 -2 24 3 24 14 0 20
102 11 164 -3 16 3 60 14 99 10 39 18 79 18 89 0 23 17 24 23 1 2 -10 2 2 0
27 -1 25 0 39 3 33 10 -22 24 -14 24 13 0 14 4 23 10 19 6 -4 7 -11 4 -17 -4
-6 -2 -8 4 -4 6 3 10 20 10 37 -1 17 6 37 14 45 13 14 15 9 13 -38 -1 -29 -5
-63 -9 -75 -10 -32 2 -29 15 3 5 15 12 24 15 21 3 -3 -1 -19 -9 -36 -13 -26
-13 -29 1 -24 10 4 13 2 8 -5 -4 -7 -14 -12 -22 -12 -11 0 -13 -6 -8 -22 7
-22 9 -40 13 -98 1 -20 3 -22 11 -10 13 19 14 -4 1 -28 -14 -27 -24 -80 -11
-62 8 13 10 13 10 -1 0 -9 -7 -22 -15 -29 -17 -14 -20 -40 -4 -40 5 0 3 -10
-5 -22 -18 -25 -21 -42 -6 -33 6 3 10 -3 10 -14 0 -12 5 -21 10 -21 19 0 10
-24 -22 -59 -18 -20 -22 -27 -9 -16 l24 20 -12 -23 c-7 -13 -15 -36 -17 -50
-3 -15 -11 -39 -19 -54 -15 -31 -9 -37 11 -10 11 14 13 14 13 2 1 -15 -10 -65
-23 -110 -6 -19 -5 -21 3 -10 16 22 13 -1 -4 -30 -18 -31 -19 -54 -3 -44 7 5
2 -5 -10 -21 -14 -17 -19 -31 -13 -33 16 -5 13 -28 -5 -43 -22 -18 -37 -60
-25 -72 5 -5 6 -21 1 -37 -5 -16 -6 -31 -3 -34 3 -3 1 -12 -6 -19 -8 -10 -8
-22 -2 -38 7 -17 10 -19 10 -7 1 9 6 20 12 24 13 7 2 -57 -11 -66 -4 -3 -12
-25 -18 -50 -6 -25 -14 -56 -18 -69 -5 -17 -4 -22 5 -17 6 4 9 11 6 16 -3 4 4
19 16 31 l21 24 -5 -23 c-5 -19 -3 -21 9 -11 18 15 18 -1 -1 -27 -8 -12 -12
-24 -8 -27 3 -4 0 -13 -6 -21 -7 -8 -14 -33 -16 -56 -3 -23 -18 -69 -35 -103
-16 -33 -30 -71 -30 -84 0 -12 -4 -23 -8 -23 -4 0 -13 -18 -19 -40 -5 -22 -7
-40 -2 -40 13 0 -20 -57 -54 -90 -28 -29 -29 -31 -7 -20 23 12 24 12 12 -3 -8
-9 -11 -20 -8 -25 3 -5 -1 -18 -9 -28 -8 -10 -15 -28 -15 -39 0 -11 -7 -31
-16 -43 -8 -12 -12 -22 -8 -22 3 0 1 -6 -6 -14 -6 -8 -17 -13 -24 -10 -7 3
-19 -15 -30 -46 -10 -28 -27 -55 -37 -61 -14 -7 -18 -16 -13 -34 5 -18 -2 -35
-27 -67 -19 -24 -26 -37 -16 -29 17 13 18 12 11 -15 -3 -16 -13 -39 -20 -51
-8 -12 -11 -29 -8 -38 6 -14 8 -14 19 2 23 32 26 7 4 -41 -11 -26 -18 -54 -15
-61 3 -8 1 -17 -3 -20 -5 -3 -4 -16 2 -29 7 -13 16 -22 21 -19 5 4 6 -1 3 -10
-20 -48 -20 -53 -5 -33 15 19 16 19 22 -2 4 -12 12 -20 17 -17 5 4 9 -1 9 -9
0 -9 5 -16 11 -16 7 0 9 -10 4 -27 -4 -18 -3 -25 3 -18 6 6 12 19 14 30 4 16
7 13 15 -15 6 -19 12 -27 12 -17 1 23 30 19 54 -8 10 -11 16 -15 14 -10 -2 6
-1 19 4 30 6 17 8 17 8 3 1 -10 6 -18 12 -18 7 0 18 -8 26 -18 8 -9 12 -11 8
-4 -7 13 17 42 35 42 7 0 9 7 6 17 -6 15 -4 14 14 -2 20 -18 21 -18 14 0 -5
12 -4 16 3 12 7 -5 9 0 6 13 -7 27 6 26 16 -2 7 -18 9 -15 15 22 7 46 23 73
37 65 4 -3 11 11 15 31 l7 37 14 -26 c17 -34 22 -34 15 -2 -2 14 3 36 12 50 9
14 14 30 11 35 -3 5 2 26 11 47 30 67 43 106 38 115 -3 5 0 7 8 6 7 -2 14 7
16 20 2 12 8 20 13 17 5 -4 9 1 9 11 0 9 8 22 17 29 10 7 18 24 18 37 0 13 5
22 13 20 6 -1 12 7 12 18 0 11 5 20 10 20 6 0 10 6 10 14 0 7 7 19 15 26 8 7
18 30 21 52 5 28 9 36 16 26 6 -9 7 -6 3 10 -4 14 0 32 9 47 9 14 13 25 9 25
-5 0 -3 4 2 8 16 11 35 50 35 71 0 10 7 21 15 25 9 3 12 12 8 23 -6 16 -5 16
10 4 15 -12 17 -12 11 2 -6 17 25 97 38 97 4 0 8 12 9 28 0 26 1 26 9 4 5 -12
11 -22 12 -22 2 0 3 53 3 118 0 106 2 119 21 140 21 22 22 22 27 2 3 -13 1
-18 -6 -14 -9 5 -9 4 0 -6 6 -7 9 -28 6 -49 l-5 -36 22 33 c12 17 23 32 25 32
6 0 -1 -56 -8 -68 -5 -7 -3 -12 3 -12 7 0 10 -7 6 -15 -5 -13 4 -19 24 -17 3
0 6 -18 7 -41 1 -23 4 -59 8 -80 7 -35 8 -36 22 -20 13 17 13 17 4 -3 -5 -11
-16 -26 -24 -32 -15 -13 -16 -60 -1 -52 5 3 8 7 7 10 -1 3 7 6 17 6 14 0 16
-3 8 -13 -7 -9 -7 -13 1 -13 7 0 9 -5 5 -12 -12 -19 -22 -88 -13 -88 5 0 9 7
9 15 0 9 6 12 16 8 11 -4 12 -8 4 -13 -8 -5 -8 -14 1 -33 10 -23 9 -30 -7 -49
-10 -13 -4 -10 14 6 38 36 43 20 6 -23 -14 -17 -21 -31 -16 -31 5 0 12 7 16
15 3 8 9 15 14 15 9 0 7 -63 -3 -83 -4 -7 2 -2 13 11 28 31 33 28 17 -12 -10
-22 -11 -37 -5 -41 6 -3 10 1 10 10 0 9 4 14 9 10 12 -7 -3 -62 -24 -85 -8 -9
-15 -20 -15 -25 0 -5 7 0 15 11 15 19 20 11 16 -24 -2 -9 6 -12 21 -10 19 2
23 -2 24 -22 2 -65 2 -66 19 -44 13 18 14 18 8 -6 -3 -14 -9 -29 -12 -35 -4
-5 -4 -26 0 -45 3 -19 7 -29 8 -22 0 7 6 10 11 7 6 -4 7 -13 1 -24 -6 -10 -6
-23 0 -32 5 -7 9 -9 10 -4 2 24 10 59 14 64 9 9 5 -50 -5 -69 -6 -12 -6 -27
-1 -42 9 -22 16 -11 12 19 -1 6 4 15 10 19 9 5 10 2 6 -9 -3 -9 -2 -19 3 -22
6 -4 4 -18 -5 -36 -16 -30 -13 -49 7 -49 5 0 8 7 4 15 -10 27 2 16 18 -17 9
-17 16 -38 16 -46 0 -12 6 -10 25 8 28 26 35 9 10 -24 -8 -11 -15 -27 -14 -35
0 -11 2 -12 6 -3 8 21 21 13 16 -10 -4 -20 -3 -21 9 -8 18 22 48 13 48 -13 1
-19 3 -18 15 8 10 20 14 23 12 10 -1 -14 5 -21 21 -23 12 -2 22 -8 22 -13 0
-6 4 -8 9 -4 5 3 12 -3 15 -12 3 -10 4 -6 2 9 -2 15 1 25 5 22 5 -3 9 3 9 12
0 13 5 11 23 -10 25 -29 39 -26 33 8 -2 12 -1 15 1 8 6 -15 23 -16 23 0 0 6 9
3 20 -7 12 -11 20 -13 20 -6 0 7 5 9 12 5 6 -4 8 -3 5 3 -4 6 0 24 8 39 10 20
15 23 15 12 0 -22 16 -23 24 -2 3 8 11 12 16 9 6 -4 10 -3 9 2 -3 20 2 34 11
28 6 -3 10 4 10 17 0 14 7 33 15 44 16 21 20 38 6 30 -14 -9 -7 20 9 40 13 16
13 17 -2 11 -18 -6 -23 7 -18 42 2 13 0 13 -16 0 -16 -13 -17 -12 -11 4 4 11
10 31 13 45 5 22 4 25 -7 14 -7 -6 -16 -12 -20 -12 -7 0 -3 79 5 87 10 11 -15
43 -33 43 -14 0 -17 6 -13 25 4 25 -13 36 -21 13 -2 -7 -8 -9 -13 -5 -5 4 -3
12 4 16 7 4 10 15 7 24 -4 8 -2 25 5 36 8 16 8 21 -1 21 -6 0 -8 7 -5 16 4 11
2 15 -8 11 -10 -4 -13 -1 -9 9 3 7 0 14 -7 14 -9 0 -9 4 1 17 10 11 10 14 1 9
-8 -5 -11 -1 -8 16 2 13 -1 29 -6 35 -7 9 -6 18 2 28 10 12 10 15 0 15 -9 0
-8 7 4 25 15 23 15 24 -1 18 -11 -4 -14 -3 -9 6 4 6 4 11 -1 10 -18 -4 -41 13
-36 27 3 8 0 14 -7 14 -7 0 -10 7 -6 15 3 8 0 15 -6 15 -7 0 -6 5 2 15 11 13
10 14 -5 9 -15 -6 -16 -4 -5 15 11 21 10 22 -12 16 -21 -7 -22 -6 -9 9 16 19
22 56 10 56 -4 0 -6 11 -5 25 2 13 -1 22 -5 19 -16 -10 -31 7 -19 21 8 10 7
22 -5 45 -9 18 -14 34 -11 38 3 3 1 11 -5 19 -6 7 -9 13 -6 13 3 0 0 12 -8 27
-10 20 -11 31 -3 40 7 9 7 13 -1 13 -7 0 -10 4 -7 8 2 4 -10 7 -28 7 l-33 -2
19 34 c18 30 18 34 4 48 -14 15 -14 19 -1 45 13 26 13 28 -4 23 -24 -6 -38 33
-38 104 -1 33 -6 58 -16 67 -9 9 -13 25 -10 37 4 15 3 20 -5 15 -12 -7 -16 5
-13 31 1 7 -4 23 -11 35 -13 24 -15 29 -17 62 -1 12 -6 16 -16 12 -17 -6 -21
9 -5 19 6 4 8 11 4 16 -3 5 -9 7 -14 4 -5 -3 -7 15 -5 40 2 41 1 44 -16 34
-23 -12 -24 -6 -3 26 13 21 14 25 2 25 -8 0 -20 -6 -27 -12 -8 -7 -5 1 5 17
17 27 17 29 1 16 -16 -13 -17 -12 -8 12 8 20 7 26 -2 24 -16 -3 -20 38 -13
133 3 36 2 45 -3 25 l-7 -30 -5 32 c-4 21 -1 34 8 37 7 3 13 16 13 30 0 14 4
36 10 50 7 18 6 26 -1 26 -8 0 -7 5 1 15 10 12 10 15 0 15 -9 0 -9 4 -3 12 6
7 9 22 7 33 -11 55 -12 75 -3 81 5 3 7 10 3 15 -3 5 0 16 6 24 10 12 9 15 -4
15 -14 0 -12 5 8 27 18 19 22 32 17 47 -4 12 -2 31 5 45 12 24 13 24 20 -15 6
-31 9 -35 14 -19 6 16 9 10 15 -23 4 -24 9 -41 12 -38 7 7 33 -20 33 -33 0 -6
5 -11 11 -11 6 0 9 -6 6 -13 -3 -7 4 -19 14 -25 17 -11 19 -9 20 10 0 22 1 22
8 3 5 -11 5 -28 0 -37 -15 -28 -10 -31 10 -7 l19 24 -3 -65 c-3 -53 -2 -57 4
-23 9 53 21 67 21 24 0 -28 3 -31 20 -26 16 5 20 2 20 -14 0 -25 20 -28 21 -3
1 11 4 9 9 -8 5 -17 8 -19 9 -7 1 24 21 21 21 -4 0 -11 4 -17 10 -14 5 3 12
-7 16 -22 4 -15 9 -32 12 -37 8 -15 21 18 15 41 -3 14 -1 23 6 23 6 0 11 -11
11 -25 0 -14 5 -25 10 -25 6 0 10 5 10 10 0 6 10 2 22 -9 11 -11 25 -18 29
-15 4 2 13 -5 20 -17 9 -17 13 -19 20 -8 5 8 9 10 9 4 0 -5 4 -4 9 4 7 11 14
5 29 -24 l19 -38 7 27 c8 31 26 26 26 -7 0 -13 9 -30 19 -39 18 -16 20 -15 35
5 13 19 15 19 15 5 1 -21 17 -24 24 -5 3 7 6 4 6 -6 1 -10 6 -15 11 -12 6 3
10 1 10 -6 0 -7 7 -4 15 7 14 18 14 18 16 -6 l1 -25 7 24 6 24 14 -29 14 -29
8 30 c3 17 7 22 8 13 0 -10 6 -18 12 -18 5 0 7 -5 3 -12 -5 -7 -3 -8 5 -4 7 5
10 14 7 22 -4 10 0 14 12 12 11 -2 17 3 16 15 -2 26 5 21 21 -15 12 -29 14
-30 15 -10 0 13 4 21 9 17 6 -3 8 6 5 20 -3 19 -1 23 11 19 11 -5 15 1 15 18
0 40 12 40 31 1 12 -27 18 -32 19 -18 1 26 26 59 38 51 5 -3 18 5 27 18 10 14
25 22 32 19 9 -3 14 0 13 8 -5 35 0 43 15 23 14 -18 14 -17 15 14 0 18 5 43
11 55 7 12 13 30 14 42 1 11 3 25 4 30 1 6 6 3 12 -5 8 -12 9 -11 5 5 -15 61
-17 96 -6 110 7 8 10 24 7 35 -3 13 3 30 19 47 18 19 21 30 14 43 -7 13 -6 23
3 32 6 7 12 32 12 56 0 23 2 42 6 42 3 0 4 11 1 25 -3 16 1 27 11 31 10 3 13
12 10 22 -6 13 -8 13 -15 -4 -6 -14 -7 -11 -5 13 3 27 1 30 -10 21 -12 -9 -13
-7 -8 13 3 14 7 32 8 40 2 8 6 20 10 27 5 6 6 16 3 21 -3 5 0 14 7 20 8 6 12
23 9 41 -3 19 0 30 8 30 6 0 11 10 10 23 -4 39 1 43 16 12 13 -29 14 -28 9 25
-3 30 -2 49 1 43 10 -21 24 -14 24 11 0 32 18 43 22 14 3 -21 5 -20 15 9 10
26 9 31 -2 26 -12 -4 -12 0 0 25 9 16 23 36 32 43 16 13 16 12 0 -11 -21 -31
-22 -51 -1 -24 15 18 15 18 10 -11 -4 -16 -8 -43 -10 -60 -2 -16 -7 -40 -11
-53 -6 -18 -4 -21 9 -16 9 3 16 17 16 30 0 13 4 24 9 24 6 0 6 -12 1 -29 -4
-17 -4 -31 0 -33 5 -2 2 -12 -7 -23 -13 -16 -15 -17 -10 -2 4 9 2 17 -3 17 -6
0 -10 -9 -10 -20 0 -11 5 -20 10 -20 7 0 8 -6 2 -16 -5 -9 -7 -25 -4 -36 2
-10 -2 -26 -10 -36 -8 -9 -18 -24 -22 -32 -4 -8 2 -4 13 10 22 26 24 24 22
-25 -2 -29 -1 -29 14 -11 14 19 15 19 15 1 0 -10 -12 -32 -27 -49 -16 -17 -19
-24 -9 -16 18 14 19 13 12 -5 -5 -11 -10 -29 -13 -40 -3 -16 -1 -15 12 5 l16
25 -6 -30 c-4 -16 -16 -39 -28 -50 -19 -18 -19 -20 -4 -23 21 -4 21 -12 2 -38
-16 -21 -20 -38 -6 -30 14 9 23 -44 10 -60 -7 -8 -9 -17 -6 -21 4 -3 9 2 13
11 7 17 24 22 24 6 0 -5 -17 -29 -37 -52 -21 -24 -27 -34 -14 -23 l23 20 -16
-39 c-9 -21 -16 -46 -16 -56 0 -9 -11 -39 -24 -66 l-25 -49 30 35 31 35 -5
-45 c-3 -25 -15 -70 -26 -100 -11 -30 -14 -47 -7 -38 23 32 27 19 6 -22 -22
-43 -26 -65 -10 -55 6 3 10 2 10 -4 0 -5 -6 -14 -12 -18 -7 -4 -19 -18 -25
-30 -10 -18 -10 -21 0 -17 20 7 17 -28 -4 -51 -26 -30 -53 -96 -37 -93 14 3
16 -23 4 -62 l-7 -25 19 24 c11 14 18 30 15 37 -2 7 1 15 7 19 20 12 2 -45
-24 -76 -20 -23 -24 -37 -20 -57 8 -32 14 -41 14 -20 0 9 7 21 15 28 13 11 14
8 9 -21 -4 -19 -13 -45 -22 -59 -8 -13 -17 -38 -18 -55 -2 -16 -11 -47 -20
-68 -10 -20 -14 -40 -10 -44 9 -10 25 17 20 32 -3 6 5 22 17 36 l22 24 -5 -27
c-3 -16 -1 -28 3 -28 5 0 9 5 9 10 0 6 5 10 10 10 6 0 4 -13 -5 -30 -8 -16
-14 -33 -13 -37 2 -13 -20 -60 -31 -68 -6 -3 -11 -11 -11 -17 0 -6 7 -5 17 3
14 12 16 12 9 0 -8 -12 -16 -39 -31 -105 -2 -10 -11 -26 -19 -35 -8 -9 -22
-41 -32 -71 -10 -30 -21 -57 -24 -60 -4 -3 -10 -22 -14 -43 -4 -21 -10 -46
-13 -54 -4 -10 -2 -14 4 -10 11 7 -10 -38 -37 -80 -19 -29 -33 -29 -25 0 5 20
5 20 -5 4 -7 -10 -9 -21 -6 -24 3 -4 -2 -16 -11 -27 l-18 -20 30 18 c17 10 24
13 18 5 -7 -7 -13 -24 -13 -37 0 -13 -9 -37 -21 -53 -11 -16 -16 -29 -10 -29
7 0 7 -10 0 -30 -6 -16 -15 -30 -20 -30 -5 0 -9 -8 -9 -19 0 -25 -25 -47 -35
-30 -5 7 -17 -7 -31 -37 -13 -26 -21 -51 -19 -54 5 -9 -32 -50 -45 -50 -6 0
-10 -7 -10 -17 0 -14 3 -14 22 3 l22 19 -17 -25 c-9 -13 -17 -32 -17 -41 0 -9
-9 -26 -20 -39 -11 -13 -20 -32 -21 -44 -1 -43 -21 -100 -38 -111 -6 -3 -11
-11 -11 -16 0 -6 5 -7 10 -4 6 3 10 -2 11 -12 0 -14 2 -13 10 5 5 13 13 20 19
17 11 -7 10 -36 -1 -45 -11 -9 -38 -101 -28 -95 18 12 8 -9 -18 -39 -16 -17
-20 -24 -11 -17 21 16 38 7 38 -20 0 -11 5 -17 10 -14 6 4 8 16 5 28 -5 20 -5
20 6 4 9 -15 7 -26 -6 -51 -9 -17 -15 -42 -12 -56 4 -21 4 -20 6 7 1 43 17 50
35 16 8 -15 15 -22 16 -15 0 6 5 12 10 12 7 0 9 -15 6 -37 -3 -21 -3 -30 0
-20 9 27 25 9 18 -21 -4 -21 -3 -24 5 -12 6 8 11 23 11 33 0 10 5 15 10 12 6
-3 10 -19 10 -36 0 -16 4 -29 9 -29 4 0 6 12 3 27 -5 26 -4 27 11 11 10 -9 17
-25 18 -35 0 -14 3 -12 11 7 10 25 10 25 18 4 15 -39 30 -38 31 3 1 38 1 38 9
8 4 -16 8 -25 9 -20 1 6 6 2 12 -8 6 -9 14 -15 20 -12 5 4 9 1 9 -6 0 -7 3
-10 6 -7 3 4 1 16 -5 27 -10 17 -9 20 4 15 8 -4 15 -1 15 5 0 18 28 13 34 -6
3 -10 3 0 1 22 -2 22 -1 35 3 29 4 -5 17 -10 29 -10 18 0 21 5 17 23 -9 33 12
28 22 -5 6 -24 8 -21 16 28 5 30 16 65 25 79 15 24 17 24 23 6 5 -15 8 -13 15
15 4 19 7 41 6 49 -1 7 2 10 8 6 6 -3 11 -12 11 -18 0 -7 7 -20 14 -30 13 -17
14 -14 9 21 -5 38 11 87 25 78 4 -2 6 13 4 35 -2 22 1 46 8 54 6 8 9 22 6 32
-3 10 -1 25 5 33 9 12 10 11 6 -8 -3 -12 -1 -20 4 -16 5 3 9 14 9 24 0 10 8
24 18 29 12 7 13 10 3 11 -12 0 -11 3 1 18 9 9 19 32 23 51 5 24 10 30 16 20
7 -11 9 -10 9 5 0 10 10 29 22 41 13 13 23 30 24 37 0 7 2 21 2 30 1 11 7 15
17 12 10 -4 15 0 15 15 0 12 5 21 10 21 6 0 10 9 10 20 0 10 9 24 20 30 13 7
21 25 26 60 5 37 10 48 18 41 9 -7 11 -1 8 23 -2 20 2 38 10 47 8 8 13 20 10
27 -2 6 1 12 7 12 6 0 11 9 11 19 0 10 7 22 16 25 8 3 14 14 13 23 -3 35 2 49
10 28 7 -16 9 -13 15 18 4 21 11 35 17 32 5 -4 9 5 9 20 0 14 7 37 16 50 9 14
13 32 10 41 -4 11 -2 15 8 11 8 -3 16 2 19 14 6 24 24 25 30 1 2 -9 2 15 0 53
-3 51 -2 66 6 55 9 -12 11 -11 11 8 0 13 -4 20 -10 17 -14 -9 -13 8 2 23 9 9
9 12 0 12 -9 0 -10 4 0 19 9 15 9 23 -1 35 -8 10 -10 26 -6 47 5 23 10 28 16
18 7 -12 9 -11 9 2 0 8 7 24 15 35 14 18 15 16 12 -23 -4 -38 -2 -41 11 -30
13 10 14 9 7 -2 -10 -17 -15 -75 -5 -64 4 4 16 21 28 37 l21 28 -5 -52 c-3
-34 -1 -49 6 -45 5 3 10 2 10 -4 0 -5 -4 -13 -10 -16 -5 -3 -10 -12 -10 -18 0
-7 4 -6 10 3 14 21 13 -5 0 -31 -14 -26 -2 -24 21 4 l19 22 -6 -35 c-3 -19 -7
-40 -9 -47 -2 -6 1 -13 6 -15 5 -2 16 -26 24 -53 7 -28 14 -40 14 -27 1 12 6
22 11 22 21 0 8 -23 -42 -78 -29 -31 -41 -46 -26 -33 l27 23 -1 -23 c-1 -13
-6 -31 -12 -39 -6 -8 9 1 33 20 l44 34 -19 -29 c-18 -30 -18 -30 1 -15 17 14
18 13 11 -5 -18 -46 -25 -77 -19 -92 5 -12 3 -14 -7 -8 -9 5 -11 4 -6 -3 10
-17 24 -15 29 5 3 11 5 7 6 -10 0 -16 5 -25 11 -22 5 3 12 -6 16 -20 5 -19 0
-33 -17 -53 l-24 -27 25 20 c13 11 30 27 37 35 25 31 13 -11 -13 -46 -15 -19
-24 -37 -21 -40 3 -3 10 4 17 15 6 12 14 21 18 21 13 0 7 -77 -6 -93 -11 -13
-10 -15 4 -13 9 1 22 13 30 27 10 18 13 20 14 7 0 -9 -4 -20 -10 -23 -5 -3
-10 -17 -10 -31 0 -13 5 -24 10 -24 6 0 10 7 10 16 0 8 4 12 10 9 14 -8 0 -66
-21 -90 -17 -20 -43 -75 -34 -75 2 0 12 15 22 33 l17 32 6 -35 c5 -35 27 -47
42 -25 5 6 8 4 8 -5 1 -8 3 -35 5 -58 4 -46 15 -71 15 -34 0 11 5 24 12 28 8
5 9 2 4 -11 -17 -44 -18 -130 -2 -168 15 -33 36 -43 36 -16 0 6 -6 7 -12 3
-10 -6 -10 -4 0 8 7 9 15 29 18 45 3 15 10 33 16 38 8 7 9 4 3 -10 -4 -11 -10
-38 -12 -60 -3 -22 -9 -47 -14 -56 -7 -15 6 -89 16 -89 2 0 2 15 0 33 -6 42
10 69 19 33 7 -30 -2 -76 -15 -76 -15 0 -10 -37 6 -43 18 -8 27 6 18 29 -4 12
-3 15 5 10 7 -4 12 -16 12 -27 0 -25 16 -25 23 1 3 11 13 20 23 20 16 0 15 -2
-4 -20 -22 -21 -27 -45 -16 -74 5 -12 12 -9 35 17 34 37 38 23 9 -33 -11 -22
-16 -40 -11 -40 5 0 12 6 14 13 3 6 6 -4 7 -23 l2 -35 12 40 12 40 6 -30 c4
-16 2 -35 -4 -42 -5 -7 -8 -18 -5 -25 4 -9 6 -8 6 3 1 9 8 22 16 29 12 10 16
9 21 -5 6 -15 9 -15 21 6 9 15 12 17 9 6 -6 -18 17 -33 36 -25 4 2 14 -6 21
-16 14 -19 15 -19 21 2 5 14 12 19 23 15 12 -5 14 -1 9 18 -6 20 -5 21 4 6 6
-9 15 -15 21 -12 5 4 9 -3 9 -14 0 -11 4 -22 9 -25 14 -9 32 20 25 40 -5 15
-4 16 4 5 9 -12 13 -12 26 -2 14 11 16 11 16 -3 0 -10 4 -15 9 -12 5 4 12 0
14 -6 3 -8 6 -6 6 4 1 12 7 16 19 12 14 -5 15 -4 2 5 -10 7 -11 14 -5 18 6 5
16 19 22 33 9 18 12 20 12 8 1 -19 21 -26 21 -7 0 5 5 7 10 4 6 -3 10 0 10 8
0 8 11 25 25 38 14 14 25 35 25 50 0 15 7 32 15 39 18 15 20 34 3 24 -10 -6
-10 -4 0 7 6 7 12 17 12 22 0 4 -6 5 -12 1 -7 -4 -4 3 7 16 l20 23 -23 -6
c-19 -4 -22 -2 -16 15 4 13 2 18 -4 14 -24 -15 -29 55 -7 98 15 28 15 29 -2
14 -41 -35 -46 -34 -40 10 3 28 2 40 -5 35 -13 -7 -2 14 20 40 14 15 13 17 -1
17 -10 0 -16 3 -16 8 4 23 -3 30 -26 26 -23 -4 -25 -2 -20 26 6 34 0 37 -27
13 -22 -20 -24 -1 -2 21 8 9 11 16 6 16 -12 0 -3 50 12 69 9 12 7 13 -8 8 -15
-6 -18 -3 -14 17 4 19 1 23 -11 18 -14 -5 -14 -3 -3 10 11 14 10 17 -4 20 -16
3 -16 4 1 22 19 18 19 18 -5 11 -22 -7 -23 -6 -11 9 7 9 10 16 5 16 -14 0 -15
62 -1 79 9 12 9 13 0 7 -18 -10 -16 15 2 42 15 20 15 21 -1 15 -11 -4 -15 -2
-11 4 4 6 -3 9 -18 8 -26 -3 -43 24 -29 47 5 7 2 9 -9 5 -12 -4 -14 0 -11 19
3 14 0 24 -7 24 -7 0 -4 9 7 22 l19 22 -27 -17 -27 -17 14 27 c17 33 9 46 -11
19 -13 -19 -14 -19 -14 -1 0 10 7 27 17 37 12 14 13 18 3 18 -11 0 -11 3 -2
12 14 14 16 32 3 24 -5 -3 -12 1 -15 10 -3 8 -2 13 2 10 4 -2 8 4 8 15 0 13
-5 17 -17 14 -24 -8 -34 14 -16 32 14 14 14 18 -1 42 -9 14 -20 29 -25 32 -13
9 -10 19 10 36 15 12 15 14 1 10 -10 -4 -18 1 -21 14 -3 10 -2 17 2 14 4 -2 8
2 8 9 0 8 -7 12 -15 8 -12 -4 -14 0 -10 16 4 13 1 22 -5 22 -7 0 -3 7 7 15 18
14 18 15 2 15 -11 0 -15 4 -10 13 5 8 3 8 -9 -2 -9 -7 -14 -18 -10 -25 3 -6 3
-8 -2 -4 -4 4 -15 2 -24 -4 -12 -10 -12 -8 2 8 23 27 22 33 -7 30 -17 -2 -23
1 -19 10 6 17 20 18 25 3 2 -7 10 -4 18 7 9 11 10 15 3 10 -22 -13 -34 3 -21
27 14 26 19 47 10 46 -33 -5 -36 7 -11 57 15 30 15 30 -6 27 -35 -7 -46 19
-48 116 -2 73 -5 90 -16 86 -9 -4 -12 1 -8 15 3 11 1 17 -4 14 -6 -3 -7 5 -3
22 6 22 4 26 -9 21 -18 -7 -29 14 -17 34 5 8 5 19 -1 26 -6 7 -7 18 -3 24 4 8
3 9 -4 5 -7 -4 -12 -2 -12 4 0 6 -4 8 -10 5 -14 -9 -13 8 2 23 9 9 9 12 0 12
-6 0 -9 6 -6 13 3 8 -2 20 -11 27 -10 8 -15 9 -15 1 0 -6 -5 -11 -12 -11 -6 0
-1 11 12 25 23 25 19 31 -19 25 -12 -1 -13 1 -2 14 7 8 10 20 6 26 -4 6 -1 18
7 27 11 15 10 16 -12 10 l-25 -6 25 20 c22 18 23 19 3 9 -13 -6 -23 -7 -23 -3
0 4 -5 1 -10 -7 -7 -11 -10 -12 -10 -2 0 8 9 26 20 42 l19 27 -27 -5 c-22 -4
-25 -2 -14 9 17 18 15 34 -3 19 -18 -15 -21 1 -4 32 8 15 8 19 0 14 -6 -4 -11
-2 -11 4 0 6 -5 8 -11 4 -8 -5 -10 1 -7 19 3 14 2 31 -2 38 -4 6 -2 22 5 36
13 25 9 63 -6 63 -11 0 -12 35 -2 81 5 28 7 30 14 14 5 -14 8 -8 8 23 1 54 1
54 13 76 7 14 7 17 -2 11 -9 -5 -10 -1 -5 15 5 15 4 20 -4 16 -21 -13 -11 13
11 28 12 9 18 16 12 16 -6 0 -11 6 -12 13 0 6 -3 30 -5 52 -3 22 1 57 8 77 11
32 10 38 -4 43 -14 6 -14 7 2 16 9 6 17 17 17 25 0 8 4 13 9 10 5 -3 11 1 14
8 3 8 1 17 -6 19 -8 3 -7 10 6 24 9 11 17 23 17 28 0 5 -7 0 -15 -11 -8 -10
-15 -16 -15 -13 0 9 29 75 30 69 1 -3 3 -23 6 -45 6 -57 11 -66 30 -58 14 5
16 2 12 -20 -3 -15 -1 -27 3 -27 5 0 9 6 10 13 0 6 5 -1 11 -17 8 -21 13 -25
19 -15 6 10 9 8 9 -8 0 -12 5 -25 10 -28 7 -4 7 -12 0 -25 -15 -29 -12 -37 6
-12 14 20 41 33 31 15 -3 -5 -1 -17 4 -28 6 -17 8 -16 9 10 1 29 2 29 11 7 5
-15 5 -30 -1 -42 -6 -10 -10 -25 -10 -32 0 -7 6 -2 13 11 20 41 36 38 27 -6
-8 -34 -3 -63 7 -37 2 6 11 20 19 30 14 18 15 16 10 -26 -5 -37 -4 -42 7 -30
20 24 37 22 37 -4 0 -14 5 -28 10 -31 6 -3 10 1 10 9 0 24 18 19 23 -6 l4 -23
2 23 c1 30 21 28 21 -3 0 -17 4 -23 15 -19 10 4 18 -7 27 -43 7 -26 14 -40 16
-30 2 9 8 17 12 17 5 0 7 14 3 32 -4 22 -3 29 5 24 7 -4 12 -22 12 -39 1 -30
1 -31 15 -13 15 19 15 19 16 -5 0 -21 1 -22 8 -5 7 19 8 18 23 -3 11 -16 18
-19 23 -10 6 8 13 3 23 -16 10 -20 16 -24 22 -15 4 7 13 9 19 6 6 -4 11 -2 11
5 0 8 8 5 19 -7 10 -10 18 -21 18 -24 0 -3 5 -16 11 -30 10 -23 17 -14 13 18
-1 6 3 12 9 12 6 0 8 5 5 10 -3 6 -1 10 4 10 6 0 11 -16 11 -35 0 -19 5 -35
10 -35 6 0 10 -8 10 -17 0 -15 2 -16 10 -3 8 12 10 12 11 -5 l0 -20 9 20 c6
14 9 15 10 5 0 -10 5 -7 14 9 l13 23 6 -22 c5 -20 8 -21 21 -10 13 10 16 10
16 -3 0 -24 33 -26 47 -2 12 19 12 18 13 -10 l1 -30 10 25 11 25 18 -35 19
-35 1 34 c0 37 8 38 15 1 5 -25 18 -43 15 -20 -5 31 1 46 10 25 7 -17 9 -17 9
-3 1 11 6 15 16 12 8 -4 15 -1 15 5 0 6 7 11 15 11 8 0 15 -8 15 -17 0 -16 -2
-16 -11 -3 -9 13 -10 13 -6 0 2 -8 12 -17 22 -19 13 -2 16 1 11 14 -4 11 -2
15 6 13 7 -3 16 -18 19 -34 4 -16 7 -21 8 -11 2 25 21 21 21 -5 1 -23 1 -23
14 2 l14 25 8 -40 c4 -22 7 -44 6 -48 -1 -5 2 -6 8 -2 5 3 8 26 5 50 -2 24 0
47 5 50 6 3 10 -1 10 -9 0 -21 25 -10 38 17 10 20 10 18 6 -9 -4 -21 1 -43 16
-70 l22 -39 -4 42 c-2 23 0 39 4 37 5 -3 12 5 16 17 6 15 11 18 16 11 12 -20
24 -13 19 11 -4 18 -3 19 6 7 8 -11 11 -12 11 -2 0 7 5 10 10 7 6 -3 10 -1 10
6 0 6 8 9 20 6 20 -5 29 8 9 15 -6 2 -7 12 -1 28 l9 25 8 -25 c8 -24 8 -24 16
-5 4 11 8 34 8 52 1 17 6 33 13 35 7 3 13 18 14 34 3 59 4 60 15 41 6 -10 8
-24 5 -32 -3 -9 0 -12 9 -9 11 5 11 12 0 45 -19 53 -23 121 -7 127 9 3 10 15
6 38 -6 35 10 69 27 58 9 -5 14 19 9 41 -7 32 -5 62 5 59 5 -2 11 6 12 18 5
46 5 174 0 231 -2 32 0 60 4 63 5 3 9 16 9 29 0 13 4 27 10 30 5 3 8 19 6 36
-2 16 2 33 9 37 7 4 12 18 11 32 -2 38 17 39 26 1 14 -50 18 -33 7 27 -12 65
-7 100 8 62 l10 -25 7 32 c10 42 26 52 26 16 1 -30 11 -19 24 25 6 17 3 22
-11 22 -11 0 -14 3 -7 8 6 4 14 17 18 28 4 12 16 30 28 40 l22 19 -22 -36
c-28 -46 -28 -58 -1 -28 l20 24 -6 -35 c-3 -19 -6 -45 -5 -57 0 -12 -7 -38
-15 -57 -9 -21 -11 -36 -5 -36 5 0 10 5 10 12 0 9 3 9 12 0 10 -10 10 -15 1
-20 -14 -9 -20 -43 -10 -59 4 -7 3 -22 -4 -34 -8 -15 -8 -19 0 -15 7 4 11 -1
11 -13 0 -11 -5 -23 -10 -26 -12 -7 -43 -65 -36 -65 3 0 13 14 21 30 20 40 38
29 29 -17 -5 -26 -4 -34 5 -29 6 4 11 17 11 29 1 19 2 20 10 5 11 -18 -1 -61
-19 -72 -6 -4 -20 -21 -31 -39 l-22 -32 27 30 c21 23 26 25 22 10 -3 -11 -9
-31 -12 -45 l-6 -25 15 25 c15 24 15 24 16 4 0 -23 -24 -77 -31 -69 -3 2 -11
-5 -18 -17 -7 -11 -8 -17 -2 -13 6 3 11 0 11 -7 0 -9 3 -9 10 2 20 31 9 -10
-12 -47 -16 -27 -18 -34 -6 -25 14 11 17 9 23 -18 5 -21 2 -39 -9 -55 -9 -13
-16 -28 -16 -32 0 -4 8 4 18 20 17 24 32 27 32 6 0 -5 -20 -31 -45 -59 -25
-28 -45 -54 -45 -58 0 -4 14 9 30 28 34 41 38 35 10 -19 -10 -21 -17 -41 -14
-43 8 -8 -35 -115 -51 -128 -8 -7 -15 -16 -15 -21 0 -5 14 5 30 23 17 17 30
35 30 39 0 5 4 9 8 9 19 0 4 -50 -25 -84 -18 -20 -33 -40 -33 -43 0 -4 13 8
29 27 l30 35 -8 -35 c-5 -19 -16 -53 -25 -74 -16 -39 -16 -39 4 -21 26 23 25
18 -5 -47 -14 -29 -25 -64 -25 -79 0 -14 -5 -30 -12 -37 -9 -9 -9 -12 0 -12
17 0 15 -45 -4 -60 -25 -21 -67 -119 -44 -105 21 13 19 -66 -3 -93 -7 -9 -6
-11 6 -7 14 6 26 31 31 67 2 10 6 21 11 25 4 5 5 -2 2 -14 -3 -13 -1 -23 5
-23 5 0 -5 -18 -22 -40 -18 -22 -28 -45 -24 -51 4 -8 3 -9 -5 -5 -9 6 -10 -10
-6 -64 3 -39 8 -77 11 -82 4 -6 2 -8 -3 -5 -6 4 -14 0 -17 -9 -9 -24 -7 -31 4
-14 6 9 10 10 10 3 0 -6 -5 -15 -10 -18 -6 -4 -9 -12 -8 -18 1 -7 -6 -26 -15
-44 -9 -18 -17 -40 -17 -49 0 -15 5 -13 28 9 15 15 33 27 39 27 6 0 13 6 16
13 2 6 8 9 12 5 4 -4 0 -19 -9 -33 -9 -14 -14 -30 -11 -35 4 -6 -3 -23 -14
-39 -11 -16 -25 -41 -31 -57 l-10 -29 19 24 c18 23 18 20 -3 -56 -11 -45 -29
-90 -39 -100 -9 -11 -17 -25 -17 -31 0 -6 -12 -25 -27 -43 -16 -18 -22 -30
-16 -25 10 5 12 -1 9 -26 -2 -18 -9 -32 -15 -31 -6 2 -11 -3 -12 -10 -2 -51
-12 -86 -31 -112 -19 -26 -19 -28 -2 -15 10 8 22 20 26 25 5 6 8 3 8 -6 0 -9
-7 -20 -16 -23 -8 -3 -13 -10 -10 -14 3 -5 -7 -26 -21 -48 -15 -21 -28 -47
-28 -57 -1 -11 -7 -22 -14 -26 -6 -4 -9 -15 -5 -25 4 -10 -4 -32 -19 -56 -15
-21 -22 -40 -16 -42 14 -5 -8 -65 -27 -72 -7 -3 -11 -11 -8 -19 6 -17 -31 -53
-40 -38 -4 6 -2 20 5 32 6 13 7 19 1 15 -6 -3 -16 -23 -22 -44 -7 -20 -21 -52
-32 -69 -11 -18 -17 -33 -13 -33 3 0 1 -9 -5 -20 -6 -11 -15 -19 -19 -17 -5 1
-9 0 -8 -3 1 -3 -19 -25 -44 -50 -25 -25 -32 -34 -15 -20 26 22 28 23 22 5 -4
-13 4 -7 24 15 21 24 26 27 17 10 -8 -14 -18 -36 -22 -50 -8 -26 -36 -69 -72
-110 -25 -27 -28 -36 -14 -44 5 -3 15 2 22 12 13 15 12 16 -3 3 -26 -20 -22 2
4 25 19 17 21 17 15 1 -4 -10 -2 -17 6 -17 8 0 9 -2 1 -8 -6 -4 -15 -18 -19
-32 -4 -14 -16 -36 -26 -49 -11 -13 -19 -29 -19 -35 0 -6 7 -2 16 9 13 18 14
17 9 -15 l-5 -35 16 34 c11 25 18 31 24 22 6 -11 9 -11 13 0 4 10 6 9 6 -3 1
-10 -6 -18 -14 -18 -8 0 -15 -5 -15 -11 0 -5 5 -7 10 -4 6 3 10 2 10 -3 0 -6
-7 -13 -16 -16 -9 -4 -14 -9 -11 -12 3 -3 -3 -31 -14 -61 -17 -51 -17 -54 -1
-42 9 8 2 -3 -15 -24 -18 -21 -33 -41 -33 -45 0 -4 7 2 15 12 11 15 17 16 28
7 14 -11 15 -38 2 -76 -3 -11 3 -3 15 18 12 22 24 36 28 33 3 -3 -3 -23 -14
-44 -15 -27 -19 -46 -13 -72 l6 -35 2 37 c0 20 4 44 7 52 6 15 8 15 20 -1 7
-10 14 -27 14 -38 1 -18 1 -19 11 -2 18 30 29 19 24 -26 -2 -23 -2 -34 1 -24
9 29 24 8 17 -25 -6 -28 -5 -30 9 -17 9 8 14 17 12 21 -2 3 -1 14 3 24 6 16 7
16 14 -2 4 -10 8 -33 8 -51 1 -17 5 -34 9 -37 5 -3 7 16 5 42 -2 37 -1 43 8
29 5 -9 14 -15 20 -12 5 4 9 0 9 -7 0 -10 3 -9 10 2 7 12 10 11 16 -5 5 -11
14 -26 21 -33 11 -11 13 -9 13 15 0 15 5 35 10 43 7 10 8 0 5 -35 -2 -27 -2
-43 1 -35 3 8 8 22 11 30 4 12 7 11 12 -4 11 -28 41 -30 41 -3 0 18 2 19 10 7
8 -12 10 -10 11 10 l1 25 8 -25 8 -25 2 25 2 25 7 -25 c7 -24 8 -24 12 7 3 18
2 33 -3 33 -4 0 -8 7 -8 16 0 9 13 1 35 -23 19 -21 35 -34 35 -30 0 5 -7 15
-15 23 -20 20 -20 40 0 24 13 -11 14 -8 9 18 -4 17 -1 32 5 36 7 4 11 0 11
-11 0 -11 6 -27 13 -38 12 -16 15 -11 20 45 4 35 14 74 23 88 15 23 16 23 29
5 13 -17 14 -15 15 15 0 17 4 32 9 32 5 0 7 10 3 22 -3 14 -2 19 6 14 7 -4 12
-12 12 -17 0 -6 7 -18 16 -26 14 -14 15 -13 9 19 -5 24 -2 45 9 66 8 16 14 31
13 33 -1 2 4 -3 11 -11 11 -13 12 -10 6 15 -4 17 -8 32 -10 34 -2 2 4 20 12
39 8 20 12 42 10 49 -3 7 -1 23 5 35 8 20 9 19 4 -7 -5 -28 -4 -29 10 -11 8
11 15 26 15 34 0 7 4 11 9 8 4 -3 6 5 4 17 -3 14 3 30 16 41 12 11 21 31 21
49 0 23 4 28 16 23 12 -5 15 -2 10 10 -4 10 7 27 29 49 21 19 31 35 24 37 -8
3 -7 12 4 33 9 17 16 24 17 18 0 -24 20 -13 20 11 0 13 7 29 15 36 8 7 12 16
9 21 -2 5 6 18 19 30 23 19 43 84 38 118 -2 13 0 13 13 2 14 -12 15 -10 10 18
-5 21 -1 39 12 58 10 16 19 31 19 35 0 3 3 10 8 14 4 4 7 14 7 21 0 8 7 21 15
29 8 9 15 29 15 45 0 34 17 39 23 7 3 -15 4 -13 3 7 0 19 4 29 12 28 15 -4 15
3 2 27 -7 13 -7 21 2 26 6 4 9 3 5 -2 -3 -5 1 -18 10 -29 13 -18 14 -17 7 19
-5 31 -3 42 9 51 9 7 18 28 19 49 3 39 12 45 27 18 13 -22 14 -11 1 23 -6 15
-6 24 -1 20 5 -3 12 -1 15 4 4 5 2 12 -4 16 -6 4 -8 11 -5 16 11 17 23 9 23
-17 0 -14 5 -31 11 -37 10 -9 11 -6 7 13 -13 66 -17 168 -5 172 6 2 13 21 15
41 2 24 -1 35 -7 31 -7 -4 -9 10 -5 41 5 49 15 73 17 39 0 -10 6 -2 12 20 14
47 33 45 29 -3 -3 -28 -1 -33 12 -28 19 8 20 -2 2 -26 -7 -9 -11 -29 -8 -43
l5 -27 14 27 c8 14 11 32 7 38 -5 7 -3 8 5 4 7 -5 18 0 26 10 13 17 14 17 9
-10 -3 -16 -8 -34 -11 -39 -3 -6 -1 -7 5 -3 7 4 12 3 12 -3 0 -5 -4 -13 -10
-16 -5 -3 -9 -27 -8 -53 1 -44 2 -44 5 -9 2 20 7 37 11 37 12 0 7 -79 -6 -92
-6 -6 -12 -16 -12 -22 0 -5 9 1 20 14 11 13 20 27 20 32 0 4 5 8 11 8 6 0 8
-8 6 -17 -13 -47 -18 -95 -9 -89 12 7 23 -17 29 -64 5 -44 23 -65 23 -27 0 17
5 27 14 27 12 0 12 -4 -1 -30 -8 -17 -23 -35 -34 -40 -10 -6 -19 -16 -19 -22
0 -7 4 -7 14 1 11 9 14 6 14 -14 0 -14 -5 -28 -11 -32 -6 -4 -8 0 -4 10 3 10
2 17 -3 17 -9 0 -15 -23 -11 -44 1 -4 -4 -16 -11 -25 -12 -15 -11 -15 7 -1 11
8 24 21 28 27 4 7 17 17 27 23 19 10 19 9 -1 -27 -12 -21 -14 -30 -6 -20 19
23 30 22 17 -3 -6 -11 -11 -41 -12 -66 0 -30 -4 -41 -9 -33 -5 8 -9 10 -9 4 0
-5 5 -17 10 -25 7 -12 11 -10 19 10 9 22 10 23 12 5 1 -11 0 -27 -1 -34 -1
-13 1 -13 14 -2 19 16 22 1 4 -18 -11 -11 -10 -13 0 -7 26 15 25 -25 -2 -53
-14 -15 -26 -30 -26 -34 0 -3 18 13 40 35 38 40 52 39 29 -3 -5 -11 -15 -16
-21 -13 -7 5 -8 2 -4 -5 5 -7 0 -21 -10 -32 -9 -10 -15 -22 -11 -25 3 -3 13 6
22 20 23 34 37 33 29 -2 -4 -21 -3 -24 5 -12 19 25 2 -41 -18 -70 -28 -40 -34
-57 -12 -30 22 27 28 21 10 -12 -6 -11 -8 -22 -6 -24 3 -3 17 20 31 52 15 31
29 54 32 51 4 -4 -1 -18 -11 -33 -12 -19 -15 -36 -10 -63 l8 -36 11 33 c6 18
14 30 18 27 14 -14 -6 -82 -34 -113 -15 -18 -28 -40 -28 -49 0 -14 2 -14 15 3
8 10 15 25 15 32 0 30 20 -2 20 -33 0 -19 5 -37 11 -41 8 -4 9 1 5 17 -7 24
-7 24 8 -1 9 -14 15 -19 16 -12 0 6 5 12 11 12 6 0 10 -15 9 -32 -1 -18 -1
-55 0 -83 l2 -50 12 37 c6 20 15 40 20 45 5 5 6 0 3 -10 -4 -10 -7 -29 -7 -41
0 -13 -9 -33 -20 -46 -24 -27 -26 -38 -5 -20 13 11 15 7 15 -23 0 -19 7 -51
15 -71 14 -34 14 -39 -5 -76 -28 -56 -17 -50 15 8 30 53 37 88 24 115 -6 11
-6 16 0 15 5 -2 17 6 26 17 9 11 14 15 11 8 -4 -6 -8 -24 -11 -40 -2 -15 -6
-43 -9 -62 -3 -19 -10 -39 -15 -44 -7 -7 -5 -21 4 -43 7 -18 11 -35 7 -38 -3
-3 0 -6 7 -6 8 0 11 6 7 16 -4 9 -1 24 6 32 10 12 10 14 1 8 -18 -10 -16 6 2
30 10 12 13 14 10 3 -3 -8 -2 -26 3 -40 8 -22 0 -53 -19 -69 -3 -3 -8 -15 -11
-27 -4 -16 -2 -20 8 -16 8 3 14 -1 14 -8 0 -8 9 -3 21 11 l21 25 -7 -28 c-4
-19 -2 -26 5 -22 11 7 14 0 25 -49 6 -29 6 -29 21 -7 9 12 19 19 24 16 4 -3
11 5 15 18 3 12 8 17 11 11 3 -6 -6 -33 -19 -59 -15 -28 -22 -56 -19 -69 6
-20 6 -20 10 -1 7 37 22 40 23 5 l1 -35 10 35 c7 22 13 30 16 20 3 -8 11 -21
19 -28 11 -11 13 -11 13 0 0 8 5 6 11 -5 6 -10 9 -24 6 -30 -2 -7 -1 -21 4
-32 6 -16 8 -14 8 13 1 33 17 43 27 17 7 -18 22 -10 35 19 8 18 9 18 4 -6 -4
-22 -2 -26 10 -22 10 4 15 0 15 -12 0 -15 2 -16 9 -5 7 11 12 7 20 -20 l11
-34 -4 42 c-4 39 -3 42 15 33 17 -10 18 -7 14 22 -5 29 -4 30 5 10 5 -13 14
-20 20 -17 5 3 10 -2 10 -13 0 -32 11 -32 42 -2 33 33 48 38 48 14 0 -8 5 -12
10 -9 6 3 10 0 10 -7 1 -7 7 -2 14 11 10 18 15 20 19 10 4 -8 3 -1 0 15 -4 19
-2 27 5 22 6 -3 13 6 17 24 7 33 24 31 26 -3 1 -14 4 -9 9 13 4 19 8 27 9 18
2 -26 21 -22 22 5 0 21 1 21 9 2 7 -17 9 -15 9 12 1 21 7 33 17 35 11 2 18 16
20 37 3 19 10 41 17 49 14 18 17 62 3 62 -5 0 3 14 20 31 23 26 25 29 7 20
-30 -15 -43 -14 -43 5 0 8 -4 12 -10 9 -5 -3 -10 -2 -10 4 0 5 5 13 10 16 6 3
10 11 10 17 0 6 -6 5 -16 -3 -14 -12 -15 -9 -10 26 4 21 13 52 21 67 l14 29
-30 -26 c-28 -23 -57 -26 -43 -4 10 17 14 70 4 64 -16 -10 -11 5 11 36 12 17
16 29 9 29 -7 0 -10 6 -7 13 9 25 -32 41 -60 24 -16 -10 -9 48 8 69 10 12 9
13 -7 7 -10 -4 -26 -13 -34 -21 -10 -11 -15 -11 -18 -3 -2 7 4 19 14 27 18 15
18 15 1 10 -15 -5 -17 -2 -12 17 4 12 13 35 21 51 18 36 18 35 -6 29 -18 -5
-19 -3 -10 21 10 28 2 34 -18 14 -8 -8 -12 -8 -12 -1 0 6 10 17 23 26 l22 15
-27 -3 c-34 -4 -36 8 -6 29 25 18 17 21 -13 6 -24 -13 -25 -3 -2 22 16 18 16
18 -3 12 -17 -7 -17 -6 -5 9 9 11 10 17 2 17 -14 0 -14 47 0 56 8 4 7 9 -2 15
-12 7 -11 14 4 40 15 28 16 31 1 25 -12 -5 -15 -2 -10 10 5 14 4 15 -8 5 -11
-9 -15 -7 -19 10 -4 14 -11 20 -21 16 -19 -8 -21 13 -3 32 10 11 8 12 -10 7
-26 -8 -38 7 -18 24 16 14 10 34 -7 24 -13 -8 -3 12 21 40 9 11 -1 7 -23 -10
-41 -30 -41 -31 -7 34 11 21 10 22 -8 13 -10 -6 -22 -16 -24 -23 -3 -7 -6 -3
-6 8 -1 12 6 27 14 34 9 7 13 21 10 31 -4 11 -2 19 3 19 5 0 12 10 15 21 4 17
3 19 -6 10 -15 -15 -24 -14 -31 5 -4 10 -2 13 6 8 7 -5 9 -2 5 8 -3 9 0 21 6
27 8 8 8 11 0 11 -7 0 -15 -4 -18 -10 -3 -5 -11 -10 -16 -10 -6 0 -8 4 -5 9 4
5 0 11 -6 14 -10 3 -9 9 4 23 16 16 16 18 0 31 -9 8 -11 12 -5 8 9 -4 11 -1 7
9 -3 9 -11 13 -16 10 -6 -4 -7 2 -3 16 5 15 4 20 -4 16 -18 -12 -13 26 7 41
16 13 15 13 -7 7 -21 -5 -23 -3 -18 15 3 12 1 19 -4 15 -5 -3 -9 -1 -9 5 0 5
6 12 13 14 7 4 6 6 -5 6 -17 1 -19 16 -5 38 6 9 3 11 -10 6 -16 -6 -16 -4 2
17 17 20 18 23 3 17 -10 -4 -18 -2 -18 3 0 5 8 14 18 19 10 6 12 11 4 11 -7 0
-10 5 -6 12 5 7 3 8 -5 4 -7 -5 -10 -10 -7 -13 3 -3 -2 -12 -10 -20 -8 -8 -11
-20 -7 -26 3 -7 2 -9 -2 -4 -5 4 -18 -1 -29 -10 -18 -15 -18 -14 2 8 23 26 30
45 12 34 -5 -3 -10 -1 -10 5 0 6 7 13 15 16 8 4 15 10 15 15 0 6 -8 6 -19 0
-10 -6 -21 -7 -25 -3 -4 3 -4 -1 -1 -10 4 -9 0 -18 -9 -21 -12 -5 -13 -1 -4
24 5 16 15 26 21 22 6 -3 7 -1 3 6 -4 6 -2 18 4 26 7 8 9 15 5 15 -4 0 -1 8 6
18 12 15 12 16 -1 6 -16 -13 -36 0 -34 21 1 11 21 62 30 76 3 5 -2 6 -10 3 -9
-3 -23 -3 -31 0 -13 5 -14 10 -4 28 9 19 9 21 -2 10 -7 -6 -16 -12 -20 -12
-12 0 -7 55 7 77 8 13 10 23 5 23 -6 0 -14 -8 -20 -17 -7 -14 -9 -6 -7 28 2
26 6 52 10 58 4 6 4 20 1 32 -5 15 -10 17 -20 9 -11 -9 -13 -6 -11 14 2 14 -1
23 -5 20 -5 -3 -9 0 -9 5 0 6 6 11 13 11 9 0 9 2 -1 9 -8 4 -13 11 -13 15 1 3
-2 6 -6 5 -11 -1 -25 30 -18 42 4 5 1 16 -5 24 -10 12 -9 20 5 41 11 17 12 23
4 18 -14 -9 -49 -13 -49 -7 0 3 5 14 11 25 7 14 8 18 0 14 -6 -4 -9 4 -7 22 3
21 0 28 -13 29 -10 1 -17 -6 -18 -18 -1 -11 2 -17 8 -14 14 9 11 -1 -4 -13
-24 -21 -20 45 5 67 19 18 19 21 4 21 -11 0 -15 5 -10 13 6 10 4 10 -7 0 -18
-18 -34 -16 -19 2 7 8 10 21 7 28 -3 8 -1 20 3 27 11 18 2 33 -14 23 -7 -4 0
2 14 15 l25 23 -30 -13 c-16 -7 -33 -17 -36 -21 -4 -5 -10 -4 -13 2 -4 6 5 26
19 45 26 35 26 35 4 33 -13 -1 -30 -14 -40 -32 -28 -45 -23 -18 5 30 19 32 21
42 10 42 -7 0 -14 -5 -14 -10 0 -6 -3 -8 -6 -5 -3 4 2 20 10 37 14 27 14 30 1
25 -8 -4 -15 -1 -15 6 0 6 -4 9 -9 6 -17 -11 -19 19 -2 38 9 11 11 16 5 13 -7
-4 -14 0 -18 8 -7 19 3 47 15 39 5 -3 6 1 3 9 -3 8 0 18 6 22 9 6 9 10 -1 16
-10 6 -11 11 -3 19 8 8 9 23 2 48 -5 20 -12 51 -14 67 -3 25 -2 26 5 10 8 -16
10 -12 10 22 1 23 6 54 11 69 8 21 8 29 -2 35 -10 7 -10 11 0 21 17 17 15 33
-3 18 -8 -7 -15 -9 -15 -4 0 14 13 30 35 42 15 8 16 11 5 12 -11 0 -16 9 -15
28 0 15 -4 35 -9 44 -7 11 -6 22 5 34 9 11 9 15 2 10 -7 -4 -13 -3 -13 1 0 5
6 15 13 22 9 10 9 12 0 7 -19 -10 11 42 33 60 17 12 17 13 2 8 -10 -3 -25 -4
-33 0 -12 4 -10 11 12 33 16 16 35 36 42 46 12 15 12 17 -3 11 -22 -8 -20 15
3 44 27 31 35 28 28 -13 -3 -21 -2 -33 4 -30 5 4 9 16 9 28 0 15 3 18 11 10 8
-8 8 -17 0 -31 -9 -18 -8 -19 10 -15 19 5 21 3 15 -28 -5 -25 -4 -30 3 -19 8
11 11 12 11 2 0 -21 27 -45 33 -29 3 6 6 0 6 -15 1 -16 6 -28 12 -28 6 0 8 -9
3 -22 -15 -48 -15 -52 -2 -30 8 12 17 19 21 16 4 -4 7 1 8 12 0 10 6 1 14 -21
l13 -40 2 40 c1 37 2 38 11 15 8 -18 7 -35 -1 -58 -16 -47 -5 -51 16 -7 14 30
19 34 26 21 5 -9 6 -21 2 -28 -9 -15 -13 -68 -5 -68 3 0 14 17 24 38 l18 37
-5 -65 -5 -65 19 35 c11 19 19 29 20 22 0 -7 4 -11 9 -7 5 3 11 -9 13 -27 4
-41 28 -50 29 -11 1 27 1 27 12 -7 9 -30 11 -32 15 -12 5 31 22 28 22 -4 0
-20 4 -25 16 -20 13 5 15 0 10 -27 -4 -21 -3 -26 2 -13 10 23 17 14 27 -33 l7
-35 14 25 c8 14 11 37 8 57 -4 20 -2 32 5 32 6 0 11 -11 11 -24 0 -13 3 -32 7
-41 5 -15 8 -15 25 6 l20 24 -6 -27 c-4 -17 -2 -28 4 -28 6 0 9 4 5 9 -3 5 -1
12 5 16 5 3 10 0 10 -7 0 -9 3 -9 10 2 7 11 10 5 11 -25 1 -22 3 -32 6 -22 6
23 12 22 46 -10 19 -19 26 -22 22 -10 -4 9 -3 17 3 17 6 0 13 -6 15 -12 3 -8
6 -6 6 5 1 17 2 17 25 0 19 -14 22 -22 14 -37 -7 -12 -7 -16 0 -12 6 3 14 -4
17 -15 7 -20 8 -20 17 -6 5 10 6 22 3 27 -3 6 -1 10 4 10 6 0 11 10 11 23 0
18 2 19 10 7 5 -8 10 -30 10 -47 0 -18 5 -33 10 -33 6 0 10 -8 11 -17 0 -14 2
-15 6 -3 4 10 11 4 20 -20 l13 -35 -5 33 c-2 17 -2 32 0 32 2 0 9 -15 14 -32
l9 -33 2 35 c1 19 2 38 1 43 -3 17 17 5 22 -13 5 -21 27 -28 27 -9 0 5 5 7 11
4 5 -4 8 -21 5 -38 l-6 -32 11 29 12 29 13 -24 c9 -16 13 -19 14 -8 0 8 6 24
14 34 13 18 14 17 12 -17 -1 -40 10 -39 16 2 l3 25 14 -25 c8 -14 18 -38 22
-55 l7 -30 2 35 c1 19 2 40 1 47 -1 6 3 14 9 18 5 3 11 0 11 -7 1 -7 2 -17 4
-23 1 -5 3 -18 3 -28 1 -10 7 -15 13 -11 7 4 7 10 1 16 -6 6 -8 17 -5 25 5 11
10 8 19 -13 11 -22 12 -24 8 -5 -7 26 15 48 28 28 4 -7 8 3 9 23 1 19 3 27 6
18 2 -10 9 -18 14 -18 5 0 9 -11 9 -24 0 -13 7 -27 16 -30 15 -6 15 4 -3 52
-7 18 8 15 23 -5 11 -15 11 -12 2 19 -6 21 -8 41 -3 45 4 5 10 3 12 -4 9 -24
33 -1 33 31 0 18 3 36 7 40 10 10 11 46 1 40 -4 -3 -8 -1 -8 4 0 6 8 13 17 16
15 6 15 9 3 16 -12 7 -11 12 5 32 18 21 17 21 -8 -2 l-29 -25 7 30 c4 17 19
43 34 59 24 27 25 28 3 17 -12 -7 -27 -9 -32 -6 -12 7 -9 42 4 65 6 10 2 8
-12 -3 -11 -11 -26 -16 -31 -12 -6 3 -11 1 -11 -4 0 -6 -5 -11 -12 -11 -9 0
-9 3 0 12 14 14 16 32 3 23 -5 -3 -12 5 -14 17 -3 18 -5 17 -6 -7 -1 -23 -4
-26 -11 -15 -8 12 -10 12 -16 -3 -3 -9 -10 -17 -15 -17 -15 0 -10 30 5 36 8 3
14 14 13 24 -1 19 -27 16 -27 -3 0 -6 -3 -7 -7 -4 -3 4 2 17 13 29 10 12 13
18 7 14 -7 -4 -13 -2 -13 4 0 6 -12 3 -27 -7 -23 -15 -26 -15 -15 -2 11 14 9
16 -15 11 -22 -4 -25 -2 -19 13 6 16 4 16 -10 4 -15 -12 -16 -10 -10 21 3 19
3 29 0 23 -3 -7 -10 -13 -15 -13 -6 0 -7 6 -3 13 6 8 3 8 -9 -1 -17 -15 -38
-8 -36 11 0 9 2 8 6 -1 5 -13 23 -7 23 8 0 14 -32 4 -42 -13 -14 -26 -26 -20
-21 11 l5 27 -21 -30 c-14 -20 -21 -25 -21 -13 0 9 -3 25 -6 35 -5 15 -4 15 5
3 7 -9 11 -10 11 -3 0 17 -19 26 -33 16 -7 -4 -1 3 13 16 23 21 20 20 -32 -6
l-56 -30 3 36 c1 19 8 37 14 39 6 2 9 8 6 12 -3 5 -22 -1 -43 -13 -33 -19 -35
-19 -22 -3 8 11 30 25 48 33 17 7 32 15 32 18 0 8 -51 -14 -79 -35 -34 -24
-59 -13 -42 19 10 18 9 21 -8 18 -11 -2 -29 -11 -39 -20 -10 -9 -22 -14 -25
-10 -4 3 -7 -1 -7 -10 0 -9 -7 -17 -15 -17 -21 0 -19 18 5 32 28 18 25 25 -10
23 -28 -2 -30 1 -30 34 -1 36 -1 36 -14 12 -8 -14 -21 -25 -29 -27 -12 -2 -14
5 -10 32 5 33 -3 42 -23 27 -5 -5 -1 0 9 10 11 9 15 17 10 17 -5 0 -14 -5 -20
-11 -6 -6 -25 -13 -42 -15 -29 -3 -31 -1 -27 21 3 14 8 30 12 37 4 7 -5 2 -20
-12 -15 -14 -27 -20 -26 -15 1 6 2 20 1 33 -1 28 -21 29 -21 0 0 -33 -12 -13
-17 27 -2 22 4 54 17 83 20 46 20 47 0 22 -11 -14 -24 -30 -29 -36 -5 -6 -11
-20 -14 -30 -4 -18 -5 -17 -6 1 0 12 4 26 9 31 6 6 8 19 4 29 -6 15 -9 13 -19
-11 l-13 -29 2 37 c0 20 3 36 6 35 3 -1 6 3 7 8 2 13 -30 6 -40 -8 -5 -7 -7 1
-4 18 5 31 0 27 -29 -21 -9 -15 -10 -12 -8 17 2 25 11 42 35 61 18 16 28 28
22 28 -6 0 -16 -7 -23 -15 -7 -8 -17 -15 -23 -15 -6 0 -7 3 -4 7 4 3 0 14 -8
23 -9 10 -15 21 -14 26 1 5 1 16 0 24 -1 13 -2 13 -11 0 -6 -9 -10 -10 -10 -3
0 6 5 15 10 18 6 3 10 11 10 17 0 7 -6 6 -15 -2 -8 -7 -15 -8 -15 -2 0 5 10
17 23 26 l22 17 -22 -11 c-17 -8 -23 -8 -23 1 0 6 -7 9 -15 5 -17 -6 -22 29
-5 39 19 11 11 26 -8 16 -16 -9 -18 -6 -15 32 l3 42 -20 -32 c-23 -38 -30 -41
-30 -12 0 11 4 18 8 15 5 -3 9 2 9 10 0 8 -6 13 -14 10 -13 -5 -12 16 3 63 3
10 -3 12 -26 8 -19 -4 -30 -2 -30 5 0 6 -10 3 -21 -8 -20 -17 -19 -14 4 29
l27 47 -31 -16 -32 -16 5 30 c4 25 1 28 -16 24 -19 -5 -19 -4 -7 11 12 15 12
17 -1 12 -22 -9 -19 26 6 54 23 27 3 19 -31 -12 -29 -26 -29 -14 -2 24 21 29
14 40 -10 17 -12 -11 -13 -10 -7 6 7 20 7 20 -15 0 -22 -19 -22 -19 -16 4 3
15 1 22 -6 19 -7 -2 -13 -9 -13 -15 -1 -7 -2 -19 -3 -27 0 -8 -8 -15 -17 -15
-14 0 -14 2 1 16 11 11 13 19 6 23 -10 6 -6 54 5 73 3 4 -1 15 -10 23 -11 11
-15 12 -19 2 -2 -6 -8 -8 -13 -4 -5 5 3 19 18 32 l27 24 -24 -3 c-14 -2 -31
-11 -39 -21 -15 -21 -38 -12 -29 11 4 11 0 14 -21 10 -14 -3 -26 0 -26 5 0 5
4 9 10 9 11 0 34 40 26 47 -3 3 -20 -16 -38 -41 -34 -50 -47 -47 -29 6 7 19 7
35 2 42 -6 6 -8 24 -7 39 4 31 -1 34 -20 10 -13 -17 -14 -17 -7 1 4 13 3 17
-5 12 -7 -4 -12 -2 -12 5 0 8 -4 8 -13 1 -7 -6 -18 -7 -26 -2 -8 5 -30 2 -52
-5 -29 -10 -39 -11 -42 -2 -3 8 -11 6 -25 -6 -19 -18 -40 -9 -28 12 7 11 -74
-8 -91 -22 -9 -6 -13 -6 -13 2 0 6 4 11 9 11 5 0 11 9 14 20 6 22 4 24 -7 13z
m54 -48 c-7 -9 -15 -13 -19 -10 -3 3 1 10 9 15 21 14 24 12 10 -5z m-578 -377
c-7 -7 -12 -8 -12 -2 0 14 12 26 19 19 2 -3 -1 -11 -7 -17z m855 -30 c-3 -8
-6 -5 -6 6 -1 11 2 17 5 13 3 -3 4 -12 1 -19z m-660 -30 c-3 -7 -5 -2 -5 12 0
14 2 19 5 13 2 -7 2 -19 0 -25z m885 -50 c-7 -7 -12 -8 -12 -2 0 14 12 26 19
19 2 -3 -1 -11 -7 -17z m39 -11 c-10 -9 -11 -8 -5 6 3 10 9 15 12 12 3 -3 0
-11 -7 -18z m69 9 c0 -2 -7 -9 -15 -16 -13 -11 -14 -10 -9 4 5 14 24 23 24 12z
m27 -41 c-7 -13 -14 -20 -15 -14 -5 14 6 39 17 39 5 0 4 -11 -2 -25z m-86 -18
c-10 -9 -11 -8 -5 6 3 10 9 15 12 12 3 -3 0 -11 -7 -18z m-429 -29 c-7 -7 -12
-8 -12 -2 0 14 12 26 19 19 2 -3 -1 -11 -7 -17z m-127 -87 c3 -5 1 -12 -5 -16
-5 -3 -10 1 -10 9 0 18 6 21 15 7z m697 -23 c-8 -8 -9 -4 -5 13 4 13 8 18 11
10 2 -7 -1 -18 -6 -23z m-3442 -2 c0 -2 -8 -10 -17 -17 -16 -13 -17 -12 -4 4
13 16 21 21 21 13z m3462 -88 c-7 -7 -12 -8 -12 -2 0 14 12 26 19 19 2 -3 -1
-11 -7 -17z m39 -55 c-12 -20 -14 -14 -5 12 4 9 9 14 11 11 3 -2 0 -13 -6 -23z
m-3834 -21 c-15 -14 -27 -21 -27 -14 0 7 -5 10 -12 6 -7 -4 -8 -3 -4 5 4 6 11
9 15 6 5 -2 16 4 26 15 10 11 21 18 24 15 3 -3 -7 -18 -22 -33z m3796 13 c-3
-9 -8 -14 -10 -11 -3 3 -2 9 2 15 9 16 15 13 8 -4z m-606 -77 c-3 -8 -6 -5 -6
6 -1 11 2 17 5 13 3 -3 4 -12 1 -19z m295 0 c-7 -7 -12 -8 -12 -2 0 14 12 26
19 19 2 -3 -1 -11 -7 -17z m-213 -44 c-6 -16 -13 -24 -16 -17 -5 13 16 58 23
50 3 -2 -1 -17 -7 -33z m658 -6 c-3 -7 -5 -2 -5 12 0 14 2 19 5 13 2 -7 2 -19
0 -25z m10 -80 c-3 -8 -6 -5 -6 6 -1 11 2 17 5 13 3 -3 4 -12 1 -19z m-3950
-30 c-3 -8 -6 -5 -6 6 -1 11 2 17 5 13 3 -3 4 -12 1 -19z m2524 -1 c-10 -9
-11 -8 -5 6 3 10 9 15 12 12 3 -3 0 -11 -7 -18z m799 -7 c0 -5 -5 -10 -11 -10
-5 0 -7 5 -4 10 3 6 8 10 11 10 2 0 4 -4 4 -10z m-794 -45 c-4 -14 -11 -25
-17 -25 -6 0 -6 7 1 20 6 11 8 20 5 20 -4 0 -3 5 0 11 11 17 18 2 11 -26z
m-640 -33 c-20 -20 -22 -1 -4 31 11 20 12 21 16 3 2 -10 -3 -26 -12 -34z m517
23 c-3 -9 -8 -14 -10 -11 -3 3 -2 9 2 15 9 16 15 13 8 -4z m-1532 -26 c-9 -22
-10 -22 -10 -3 -1 11 2 24 6 27 12 12 14 0 4 -24z m2729 26 c0 -13 -31 -65
-39 -65 -10 0 21 69 32 70 4 0 7 -2 7 -5z m-1260 -9 c0 -3 -4 -8 -10 -11 -5
-3 -10 -1 -10 4 0 6 5 11 10 11 6 0 10 -2 10 -4z m-450 -40 c0 -2 -8 -10 -17
-17 -16 -13 -17 -12 -4 4 13 16 21 21 21 13z m626 -21 c-4 -34 -16 -44 -16
-13 0 21 7 38 16 38 1 0 1 -11 0 -25z m764 -41 c0 -8 -5 -12 -10 -9 -6 4 -8
11 -5 16 9 14 15 11 15 -7z m-764 -23 c-10 -11 -15 -24 -12 -30 4 -5 3 -12 -2
-15 -4 -2 -9 5 -9 17 -2 23 13 47 30 47 5 0 2 -9 -7 -19z m-2191 0 c3 -5 1
-12 -5 -16 -5 -3 -10 1 -10 9 0 18 6 21 15 7z m597 -23 c-8 -8 -9 -4 -5 13 4
13 8 18 11 10 2 -7 -1 -18 -6 -23z m1384 -3 c-11 -8 -22 -12 -25 -9 -6 6 19
24 34 24 6 -1 1 -7 -9 -15z m212 -41 c-7 -15 -14 -21 -16 -15 -2 7 2 18 8 26
18 22 21 18 8 -11z m518 -1 c-10 -10 -19 5 -10 18 6 11 8 11 12 0 2 -7 1 -15
-2 -18z m226 -15 c-7 -7 -12 -8 -12 -2 0 14 12 26 19 19 2 -3 -1 -11 -7 -17z
m-25 -20 c-3 -8 -6 -5 -6 6 -1 11 2 17 5 13 3 -3 4 -12 1 -19z m1273 8 c0 -3
-4 -8 -10 -11 -5 -3 -10 -1 -10 4 0 6 5 11 10 11 6 0 10 -2 10 -4z m60 0 c0
-3 -4 -8 -10 -11 -5 -3 -10 -1 -10 4 0 6 5 11 10 11 6 0 10 -2 10 -4z m-1710
-35 c0 -6 -4 -13 -10 -16 -5 -3 -10 1 -10 9 0 9 5 16 10 16 6 0 10 -4 10 -9z
m-1918 -23 c-7 -7 -12 -8 -12 -2 0 14 12 26 19 19 2 -3 -1 -11 -7 -17z m3798
2 c0 -5 -5 -10 -11 -10 -5 0 -7 5 -4 10 3 6 8 10 11 10 2 0 4 -4 4 -10z
m-1870 -14 c0 -3 -4 -8 -10 -11 -5 -3 -10 -1 -10 4 0 6 5 11 10 11 6 0 10 -2
10 -4z m1852 -28 c-7 -7 -12 -8 -12 -2 0 14 12 26 19 19 2 -3 -1 -11 -7 -17z
m-1434 0 c-2 -6 -10 -14 -16 -16 -7 -2 -10 2 -6 12 7 18 28 22 22 4z m-2608
-18 c0 -5 -5 -10 -11 -10 -5 0 -7 5 -4 10 3 6 8 10 11 10 2 0 4 -4 4 -10z
m385 -32 c-10 -13 -14 -16 -11 -8 3 8 9 24 13 35 4 11 8 14 11 7 2 -6 -4 -22
-13 -34z m-572 -8 c-6 -22 -23 -38 -23 -21 0 17 12 41 20 41 5 0 6 -9 3 -20z
m4366 -36 c-7 -13 -16 -24 -20 -24 -11 0 -2 39 13 57 18 22 24 -3 7 -33z
m-3016 16 c-3 -12 -8 -19 -11 -16 -5 6 5 36 12 36 2 0 2 -9 -1 -20z m1367 10
c0 -5 -5 -10 -11 -10 -5 0 -7 5 -4 10 3 6 8 10 11 10 2 0 4 -4 4 -10z m81 -37
c-12 -20 -14 -14 -5 12 4 9 9 14 11 11 3 -2 0 -13 -6 -23z m-761 -20 c-11 -17
-11 -17 -6 0 3 10 6 24 7 30 0 9 2 9 5 0 3 -7 0 -20 -6 -30z m740 7 c0 -5 -5
-10 -11 -10 -5 0 -7 5 -4 10 3 6 8 10 11 10 2 0 4 -4 4 -10z m-46 -26 c3 -8 2
-12 -4 -9 -6 3 -10 10 -10 16 0 14 7 11 14 -7z m-3378 -60 c-3 -9 -6 -18 -6
-20 0 -2 -4 -4 -9 -4 -5 0 -7 9 -4 20 3 11 10 20 15 20 6 0 7 -7 4 -16z m2955
-37 c-10 -9 -11 -8 -5 6 3 10 9 15 12 12 3 -3 0 -11 -7 -18z m-1010 -50 c-13
-13 -15 1 -4 30 7 17 8 17 11 -1 2 -10 -1 -23 -7 -29z m-991 9 c0 -8 -4 -18
-10 -21 -5 -3 -10 3 -10 14 0 12 5 21 10 21 6 0 10 -6 10 -14z m2696 -87 c10
-32 9 -39 -2 -39 -9 0 -14 13 -15 38 -1 20 -3 29 -6 19 -2 -9 -9 -15 -14 -12
-5 3 -3 14 3 25 15 23 20 19 34 -31z m-3836 17 c0 -2 -7 -7 -16 -10 -8 -3 -12
-2 -9 4 6 10 25 14 25 6z m4931 -23 c-12 -20 -14 -14 -5 12 4 9 9 14 11 11 3
-2 0 -13 -6 -23z m-4760 -20 c-12 -20 -14 -14 -5 12 4 9 9 14 11 11 3 -2 0
-13 -6 -23z m446 5 c-3 -8 -6 -5 -6 6 -1 11 2 17 5 13 3 -3 4 -12 1 -19z
m1493 -7 c-5 -11 -15 -23 -22 -27 -7 -5 -8 -2 -3 7 21 37 44 55 25 20z m-1304
-16 c-9 -9 -16 -13 -16 -8 0 12 22 34 28 28 2 -2 -3 -11 -12 -20z m1080 -1
c-4 -9 -9 -15 -11 -12 -3 3 -3 13 1 22 4 9 9 15 11 12 3 -3 3 -13 -1 -22z
m1914 6 c0 -5 -5 -10 -11 -10 -5 0 -7 5 -4 10 3 6 8 10 11 10 2 0 4 -4 4 -10z
m-3330 -40 c0 -5 -4 -10 -10 -10 -5 0 -10 5 -10 10 0 6 5 10 10 10 6 0 10 -4
10 -10z m1608 -20 c1 -16 -1 -30 -6 -30 -6 0 -8 41 -3 58 3 9 7 -3 9 -28z
m1038 4 c-4 -9 -9 -15 -11 -12 -3 3 -3 13 1 22 4 9 9 15 11 12 3 -3 3 -13 -1
-22z m-52 -2 c3 -5 -1 -9 -9 -9 -8 0 -12 4 -9 9 3 4 7 8 9 8 2 0 6 -4 9 -8z
m-4624 -32 c0 -5 -5 -10 -11 -10 -5 0 -7 5 -4 10 3 6 8 10 11 10 2 0 4 -4 4
-10z m2394 -5 c-4 -8 -8 -15 -10 -15 -2 0 -4 7 -4 15 0 8 4 15 10 15 5 0 7 -7
4 -15z m1991 -24 c3 -5 2 -12 -3 -15 -5 -3 -9 1 -9 9 0 17 3 19 12 6z m-1982
-56 c-3 -9 -8 -14 -10 -11 -3 3 -2 9 2 15 9 16 15 13 8 -4z m-650 -10 c-3 -9
-8 -14 -10 -11 -3 3 -2 9 2 15 9 16 15 13 8 -4z m3587 -45 c-6 -11 -13 -20
-16 -20 -2 0 0 9 6 20 6 11 13 20 16 20 2 0 0 -9 -6 -20z m-1254 -48 c-17 -16
-18 -16 -5 5 7 12 15 20 18 17 3 -2 -3 -12 -13 -22z m-3956 -17 c0 -8 -4 -15
-10 -15 -5 0 -7 7 -4 15 4 8 8 15 10 15 2 0 4 -7 4 -15z m1860 11 c0 -3 -4 -8
-10 -11 -5 -3 -10 -1 -10 4 0 6 5 11 10 11 6 0 10 -2 10 -4z m3220 -47 c-7
-11 -14 -19 -16 -16 -7 7 7 37 17 37 6 0 5 -9 -1 -21z m127 -11 c-3 -8 -6 -5
-6 6 -1 11 2 17 5 13 3 -3 4 -12 1 -19z m-477 8 c0 -2 -8 -10 -17 -17 -16 -13
-17 -12 -4 4 13 16 21 21 21 13z m-1477 -41 c-3 -9 -8 -14 -10 -11 -3 3 -2 9
2 15 9 16 15 13 8 -4z m593 -32 c-10 -10 -19 5 -10 18 6 11 8 11 12 0 2 -7 1
-15 -2 -18z m1344 17 c0 -5 -5 -10 -11 -10 -5 0 -7 5 -4 10 3 6 8 10 11 10 2
0 4 -4 4 -10z m-1797 -15 c-3 -9 -8 -14 -10 -11 -3 3 -2 9 2 15 9 16 15 13 8
-4z m224 -7 c-3 -8 -6 -5 -6 6 -1 11 2 17 5 13 3 -3 4 -12 1 -19z m-4143 -3
c-4 -8 -10 -15 -15 -15 -4 0 -6 7 -3 15 4 8 10 15 15 15 4 0 6 -7 3 -15z
m5839 2 c3 -8 -1 -14 -8 -14 -7 0 -11 6 -8 14 3 7 6 13 8 13 2 0 5 -6 8 -13z
m-863 -7 c0 -5 -5 -10 -11 -10 -5 0 -7 5 -4 10 3 6 8 10 11 10 2 0 4 -4 4 -10z
m102 -52 c-7 -7 -12 -8 -12 -2 0 14 12 26 19 19 2 -3 -1 -11 -7 -17z m-3580
-20 c-7 -7 -12 -8 -12 -2 0 14 12 26 19 19 2 -3 -1 -11 -7 -17z m3214 -24 c-4
-9 -9 -15 -11 -12 -3 3 -3 13 1 22 4 9 9 15 11 12 3 -3 3 -13 -1 -22z m301 -6
c-3 -8 -6 -5 -6 6 -1 11 2 17 5 13 3 -3 4 -12 1 -19z m-5167 -12 c0 -3 -4 -8
-10 -11 -5 -3 -10 -1 -10 4 0 6 5 11 10 11 6 0 10 -2 10 -4z m6020 -11 c0 -8
-2 -15 -4 -15 -2 0 -6 7 -10 15 -3 8 -1 15 4 15 6 0 10 -7 10 -15z m-148 -17
c-7 -7 -12 -8 -12 -2 0 14 12 26 19 19 2 -3 -1 -11 -7 -17z m-5730 -10 c-7 -7
-12 -8 -12 -2 0 14 12 26 19 19 2 -3 -1 -11 -7 -17z m2112 7 c-4 -8 -8 -15
-10 -15 -2 0 -4 7 -4 15 0 8 4 15 10 15 5 0 7 -7 4 -15z m-717 -27 c-3 -8 -6
-5 -6 6 -1 11 2 17 5 13 3 -3 4 -12 1 -19z m4233 -18 c0 -5 -5 -10 -11 -10 -5
0 -7 5 -4 10 3 6 8 10 11 10 2 0 4 -4 4 -10z m-2699 -43 c-10 -9 -11 -8 -5 6
3 10 9 15 12 12 3 -3 0 -11 -7 -18z m-2381 -1 c0 -3 -4 -8 -10 -11 -5 -3 -10
-1 -10 4 0 6 5 11 10 11 6 0 10 -2 10 -4z m4140 -15 c-5 -11 -15 -23 -22 -27
-7 -5 -8 -2 -3 7 21 37 44 55 25 20z m977 -48 c-3 -10 -5 -4 -5 12 0 17 2 24
5 18 2 -7 2 -21 0 -30z m-991 -24 l-15 -22 2 24 c0 13 6 27 12 31 17 12 18
-10 1 -33z m-1854 9 c-7 -7 -12 -8 -12 -2 0 14 12 26 19 19 2 -3 -1 -11 -7
-17z m1898 -8 c0 -5 -5 -10 -11 -10 -5 0 -7 5 -4 10 3 6 8 10 11 10 2 0 4 -4
4 -10z m-2957 -45 c-3 -9 -8 -14 -10 -11 -3 3 -2 9 2 15 9 16 15 13 8 -4z
m1157 5 c0 -5 -5 -10 -11 -10 -5 0 -7 5 -4 10 3 6 8 10 11 10 2 0 4 -4 4 -10z
m2990 -30 c0 -5 -5 -10 -11 -10 -5 0 -7 5 -4 10 3 6 8 10 11 10 2 0 4 -4 4
-10z m-1224 -48 c-18 -16 -18 -16 -6 6 6 13 14 21 18 18 3 -4 -2 -14 -12 -24z
m1331 6 c-3 -8 -6 -5 -6 6 -1 11 2 17 5 13 3 -3 4 -12 1 -19z m-7354 -23 c-3
-9 -8 -14 -10 -11 -3 3 -2 9 2 15 9 16 15 13 8 -4z m6012 -57 c-9 -54 -15 -65
-26 -45 -5 9 -5 26 0 40 5 14 7 28 3 33 -4 4 -1 4 6 0 6 -4 12 -2 12 3 0 6 3
11 6 11 3 0 3 -19 -1 -42z m862 -20 c2 -17 0 -19 -7 -8 -5 8 -6 18 -4 22 8 12
10 10 11 -14z m-7295 -20 c-7 -7 -12 -8 -12 -2 0 14 12 26 19 19 2 -3 -1 -11
-7 -17z m4591 7 c-3 -9 -8 -14 -10 -11 -3 3 -2 9 2 15 9 16 15 13 8 -4z m3068
-28 c-10 -9 -11 -8 -5 6 3 10 9 15 12 12 3 -3 0 -11 -7 -18z m-3879 -29 c-15
-15 -16 -32 -2 -23 15 9 12 -9 -5 -31 -14 -18 -15 -17 -12 17 4 39 15 64 25
54 3 -3 0 -11 -6 -17z m845 -30 c-3 -7 -5 -2 -5 12 0 14 2 19 5 13 2 -7 2 -19
0 -25z m1796 -3 c-3 -9 -8 -14 -10 -11 -3 3 -2 9 2 15 9 16 15 13 8 -4z m1037
11 c0 -3 -4 -8 -10 -11 -5 -3 -10 -1 -10 4 0 6 5 11 10 11 6 0 10 -2 10 -4z
m-700 -22 c0 -8 -5 -12 -10 -9 -6 4 -8 11 -5 16 9 14 15 11 15 -7z m-361 -80
c-27 -28 -36 -25 -18 7 20 38 33 49 37 32 2 -8 -6 -26 -19 -39z m764 16 c-3
-11 -10 -23 -16 -27 -5 -3 -8 -2 -5 3 3 5 8 17 11 27 9 24 16 22 10 -3z
m-3373 -41 c-7 -11 -14 -18 -17 -15 -3 3 0 12 7 21 18 21 23 19 10 -6z m3335
-9 c3 -5 2 -10 -4 -10 -5 0 -13 5 -16 10 -3 6 -2 10 4 10 5 0 13 -4 16 -10z
m487 -22 c-7 -7 -12 -8 -12 -2 0 14 12 26 19 19 2 -3 -1 -11 -7 -17z m-482 -8
c0 -5 -5 -10 -11 -10 -5 0 -7 5 -4 10 3 6 8 10 11 10 2 0 4 -4 4 -10z m-2623
-62 c-3 -8 -6 -5 -6 6 -1 11 2 17 5 13 3 -3 4 -12 1 -19z m2459 -24 c-4 -9 -9
-15 -11 -12 -3 3 -3 13 1 22 4 9 9 15 11 12 3 -3 3 -13 -1 -22z m-3205 -57
c-10 -9 -11 -8 -5 6 3 10 9 15 12 12 3 -3 0 -11 -7 -18z m2659 -7 c-6 -11 -12
-20 -14 -20 -2 0 -2 9 1 20 3 11 9 20 15 20 5 0 4 -9 -2 -20z m-2373 -12 c-3
-8 -6 -5 -6 6 -1 11 2 17 5 13 3 -3 4 -12 1 -19z m2833 7 c0 -8 -4 -15 -10
-15 -5 0 -7 7 -4 15 4 8 8 15 10 15 2 0 4 -7 4 -15z m1010 5 c0 -5 -5 -10 -11
-10 -5 0 -7 5 -4 10 3 6 8 10 11 10 2 0 4 -4 4 -10z m-847 -15 c-3 -9 -8 -14
-10 -11 -3 3 -2 9 2 15 9 16 15 13 8 -4z m240 -20 c4 -8 3 -16 -1 -19 -4 -3
-9 4 -9 15 -2 23 3 25 10 4z m-263 -5 c0 -5 -5 -10 -11 -10 -5 0 -7 5 -4 10 3
6 8 10 11 10 2 0 4 -4 4 -10z m920 0 c0 -5 -4 -10 -10 -10 -5 0 -10 5 -10 10
0 6 5 10 10 10 6 0 10 -4 10 -10z m-6276 -35 c-1 -19 1 -33 5 -30 14 8 0 -44
-15 -56 -11 -9 -12 -5 -6 18 4 15 7 42 6 58 -1 28 3 45 10 45 2 0 2 -16 0 -35z
m2734 9 c-7 -15 -14 -21 -16 -15 -2 7 2 18 8 26 18 22 21 18 8 -11z m2312 -28
c0 -3 -4 -8 -10 -11 -5 -3 -10 -1 -10 4 0 6 5 11 10 11 6 0 10 -2 10 -4z m53
-21 c4 -8 3 -16 -1 -19 -4 -3 -9 4 -9 15 -2 23 3 25 10 4z m148 -18 c-10 -9
-11 -8 -5 6 3 10 9 15 12 12 3 -3 0 -11 -7 -18z m-181 -27 c0 -5 -5 -10 -11
-10 -5 0 -7 5 -4 10 3 6 8 10 11 10 2 0 4 -4 4 -10z m-2503 -42 c-3 -8 -6 -5
-6 6 -1 11 2 17 5 13 3 -3 4 -12 1 -19z m63 -67 c-10 -20 -30 -37 -30 -27 0 6
33 46 38 46 1 0 -2 -9 -8 -19z m2697 -3 c-3 -8 -6 -5 -6 6 -1 11 2 17 5 13 3
-3 4 -12 1 -19z m-1917 -12 c0 -3 -4 -8 -10 -11 -5 -3 -10 -1 -10 4 0 6 5 11
10 11 6 0 10 -2 10 -4z m-1060 -50 c0 -3 -4 -8 -10 -11 -5 -3 -10 -1 -10 4 0
6 5 11 10 11 6 0 10 -2 10 -4z m-1840 -47 c-7 -11 -14 -18 -17 -15 -3 3 0 12
7 21 18 21 23 19 10 -6z m2170 -14 c0 -8 -4 -15 -10 -15 -5 0 -7 7 -4 15 4 8
8 15 10 15 2 0 4 -7 4 -15z m2500 -38 c0 -5 -4 -5 -10 -2 -5 3 -10 14 -10 23
0 15 2 15 10 2 5 -8 10 -19 10 -23z m531 -20 c-10 -9 -11 -8 -5 6 3 10 9 15
12 12 3 -3 0 -11 -7 -18z m665 -13 c-4 -9 -9 -15 -11 -12 -3 3 -3 13 1 22 4 9
9 15 11 12 3 -3 3 -13 -1 -22z m-5346 2 c0 -2 -8 -10 -17 -17 -16 -13 -17 -12
-4 4 13 16 21 21 21 13z m5303 -26 c-3 -12 -8 -19 -11 -16 -5 6 5 36 12 36 2
0 2 -9 -1 -20z m-603 -29 c0 -6 -4 -13 -10 -16 -5 -3 -10 1 -10 9 0 9 5 16 10
16 6 0 10 -4 10 -9z m-5310 -31 c-6 -11 -13 -20 -16 -20 -2 0 0 9 6 20 6 11
13 20 16 20 2 0 0 -9 -6 -20z m2450 10 c0 -5 -5 -10 -11 -10 -5 0 -7 5 -4 10
3 6 8 10 11 10 2 0 4 -4 4 -10z m10 -24 c0 -3 -4 -8 -10 -11 -5 -3 -10 -1 -10
4 0 6 5 11 10 11 6 0 10 -2 10 -4z m50 -70 c0 -3 -4 -8 -10 -11 -5 -3 -10 -1
-10 4 0 6 5 11 10 11 6 0 10 -2 10 -4z m563 -11 c-3 -9 -8 -14 -10 -11 -3 3
-2 9 2 15 9 16 15 13 8 -4z m1609 -47 c-7 -7 -12 -8 -12 -2 0 14 12 26 19 19
2 -3 -1 -11 -7 -17z m-2175 -20 c-3 -8 -6 -5 -6 6 -1 11 2 17 5 13 3 -3 4 -12
1 -19z m2168 -27 c3 -5 1 -12 -4 -15 -5 -3 -11 1 -15 9 -6 16 9 21 19 6z m57
-33 c-7 -7 -12 -8 -12 -2 0 14 12 26 19 19 2 -3 -1 -11 -7 -17z m-4532 2 c0
-5 -5 -10 -11 -10 -5 0 -7 5 -4 10 3 6 8 10 11 10 2 0 4 -4 4 -10z m5240 -30
c0 -5 -5 -10 -11 -10 -5 0 -7 5 -4 10 3 6 8 10 11 10 2 0 4 -4 4 -10z m-790
-26 c0 -3 -7 -12 -15 -20 -16 -17 -18 -14 -9 10 6 15 24 23 24 10z m-2670 -14
c0 -5 -5 -10 -11 -10 -5 0 -7 5 -4 10 3 6 8 10 11 10 2 0 4 -4 4 -10z m2470
-4 c0 -3 -4 -8 -10 -11 -5 -3 -10 -1 -10 4 0 6 5 11 10 11 6 0 10 -2 10 -4z
m971 -29 c-10 -9 -11 -8 -5 6 3 10 9 15 12 12 3 -3 0 -11 -7 -18z m-1418 -2
c-3 -9 -8 -14 -10 -11 -3 3 -2 9 2 15 9 16 15 13 8 -4z m-2038 -14 c3 -5 1
-12 -5 -16 -5 -3 -10 1 -10 9 0 18 6 21 15 7z m3452 -33 c-14 -21 -23 -23 -33
-6 -4 7 -3 8 4 4 7 -4 12 -1 12 7 0 7 6 14 14 14 11 0 12 -4 3 -19z m-3467
-18 c0 -5 -5 -10 -11 -10 -5 0 -7 5 -4 10 3 6 8 10 11 10 2 0 4 -4 4 -10z
m-24 -46 c-11 -7 -22 -12 -25 -9 -2 3 4 12 15 19 10 8 21 12 24 9 3 -2 -4 -11
-14 -19z m1995 3 c-10 -9 -11 -8 -5 6 3 10 9 15 12 12 3 -3 0 -11 -7 -18z m34
-17 c3 -5 1 -10 -4 -10 -6 0 -11 5 -11 10 0 6 2 10 4 10 3 0 8 -4 11 -10z
m-15 -24 c0 -3 -4 -8 -10 -11 -5 -3 -10 -1 -10 4 0 6 5 11 10 11 6 0 10 -2 10
-4z m-1338 -28 c-7 -7 -12 -8 -12 -2 0 14 12 26 19 19 2 -3 -1 -11 -7 -17z
m1328 -8 c0 -5 -5 -10 -11 -10 -5 0 -7 5 -4 10 3 6 8 10 11 10 2 0 4 -4 4 -10z
m1560 6 c0 -3 -4 -8 -10 -11 -5 -3 -10 -1 -10 4 0 6 5 11 10 11 6 0 10 -2 10
-4z m-1598 -38 c-8 -8 -9 -4 -5 13 4 13 8 18 11 10 2 -7 -1 -18 -6 -23z m-36
-16 c-18 -16 -18 -16 -6 6 6 13 14 21 18 18 3 -4 -2 -14 -12 -24z m641 -34
c-3 -7 -5 -2 -5 12 0 14 2 19 5 13 2 -7 2 -19 0 -25z m-4727 7 c-7 -9 -15 -13
-19 -10 -3 3 1 10 9 15 21 14 24 12 10 -5z m1560 -15 c0 -11 -4 -20 -9 -20 -5
0 -7 9 -4 20 3 11 7 20 9 20 2 0 4 -9 4 -20z m2933 -5 c-3 -9 -8 -14 -10 -11
-3 3 -2 9 2 15 9 16 15 13 8 -4z m30 -10 c-3 -9 -8 -14 -10 -11 -3 3 -2 9 2
15 9 16 15 13 8 -4z m1203 -31 c-4 -14 -9 -24 -12 -21 -3 2 -2 17 2 31 3 15 9
25 11 22 3 -3 2 -17 -1 -32z m-5172 11 c-4 -8 -11 -15 -16 -15 -6 0 -5 6 2 15
7 8 14 15 16 15 2 0 1 -7 -2 -15z m976 -1 c0 -10 -6 -14 -15 -10 -8 3 -19 -2
-24 -12 -6 -9 -11 -12 -11 -6 0 15 25 36 33 27 4 -3 7 -1 7 5 0 7 2 12 5 12 3
0 5 -7 5 -16z m517 -46 c-3 -8 -6 -5 -6 6 -1 11 2 17 5 13 3 -3 4 -12 1 -19z
m-2535 -35 c-3 -16 -7 -22 -10 -15 -4 13 4 42 11 42 2 0 2 -12 -1 -27z m6219
13 c11 7 11 -7 0 -24 -7 -11 -10 -10 -15 3 -3 9 -6 22 -5 28 0 8 2 8 6 -1 2
-6 9 -10 14 -6z m-2832 -40 c-9 -8 -10 -7 -5 7 3 10 7 24 7 30 1 7 3 4 6 -7 3
-10 -1 -23 -8 -30z m3408 22 c-3 -8 -6 -5 -6 6 -1 11 2 17 5 13 3 -3 4 -12 1
-19z m-6827 -32 c0 -2 -7 -6 -15 -10 -8 -3 -15 -1 -15 4 0 6 7 10 15 10 8 0
15 -2 15 -4z m3433 -43 c-5 -12 -7 -12 -14 -1 -13 20 -11 28 5 22 8 -3 12 -12
9 -21z m497 7 c0 -11 -4 -20 -9 -20 -5 0 -7 9 -4 20 3 11 7 20 9 20 2 0 4 -9
4 -20z m649 -46 c-18 -22 -21 -11 -7 27 11 30 13 31 16 11 2 -13 -2 -30 -9
-38z m-3452 4 c-3 -8 -6 -5 -6 6 -1 11 2 17 5 13 3 -3 4 -12 1 -19z m864 -61
c-13 -13 -15 1 -4 30 7 17 8 17 11 -1 2 -10 -1 -23 -7 -29z m4416 -39 c-3 -8
-6 -5 -6 6 -1 11 2 17 5 13 3 -3 4 -12 1 -19z m-7157 -18 c0 -11 -4 -20 -9
-20 -5 0 -7 9 -4 20 3 11 7 20 9 20 2 0 4 -9 4 -20z m711 -7 c-8 -15 -10 -15
-11 -2 0 17 10 32 18 25 2 -3 -1 -13 -7 -23z m6429 20 c0 -5 -5 -15 -10 -23
-8 -12 -10 -11 -10 8 0 12 5 22 10 22 6 0 10 -3 10 -7z m11 -36 c-10 -9 -11
-8 -5 6 3 10 9 15 12 12 3 -3 0 -11 -7 -18z m-8114 -49 c-3 -8 -6 -5 -6 6 -1
11 2 17 5 13 3 -3 4 -12 1 -19z m2935 -30 c-7 -7 -12 -8 -12 -2 0 14 12 26 19
19 2 -3 -1 -11 -7 -17z m-3565 -20 c-3 -7 -5 -2 -5 12 0 14 2 19 5 13 2 -7 2
-19 0 -25z m1646 -13 c-3 -9 -8 -14 -10 -11 -3 3 -2 9 2 15 9 16 15 13 8 -4z
m7253 -42 c-10 -10 -19 5 -10 18 6 11 8 11 12 0 2 -7 1 -15 -2 -18z m201 -15
c-3 -7 -5 -2 -5 12 0 14 2 19 5 13 2 -7 2 -19 0 -25z m-1876 -25 c-12 -20 -14
-14 -5 12 4 9 9 14 11 11 3 -2 0 -13 -6 -23z"/>
<path d="M11025 5010 c4 -6 11 -8 16 -5 14 9 11 15 -7 15 -8 0 -12 -5 -9 -10z"/>
<path d="M8465 4910 c-3 -5 -1 -10 4 -10 6 0 11 5 11 10 0 6 -2 10 -4 10 -3 0
-8 -4 -11 -10z"/>
<path d="M8465 4850 c-3 -6 1 -7 9 -4 18 7 21 14 7 14 -6 0 -13 -4 -16 -10z"/>
<path d="M10230 4788 c-11 -18 -20 -37 -20 -42 0 -12 1 -10 28 37 26 45 19 50
-8 5z"/>
<path d="M7671 4654 c0 -11 3 -14 6 -6 3 7 2 16 -1 19 -3 4 -6 -2 -5 -13z"/>
<path d="M10005 4550 c-16 -16 -25 -30 -19 -29 8 0 60 59 52 59 -3 0 -17 -13
-33 -30z"/>
<path d="M7781 4514 c0 -11 3 -14 6 -6 3 7 2 16 -1 19 -3 4 -6 -2 -5 -13z"/>
<path d="M8320 4511 c0 -6 4 -13 10 -16 6 -3 7 1 4 9 -7 18 -14 21 -14 7z"/>
<path d="M5745 4370 c-4 -6 -10 -8 -15 -5 -24 15 -127 -75 -118 -101 2 -5 -1
-10 -5 -11 -5 -1 -19 -14 -33 -30 -13 -15 -24 -23 -24 -18 -1 6 -8 -3 -16 -20
-8 -16 -24 -46 -35 -65 -15 -26 -18 -29 -13 -10 4 14 3 21 -2 17 -5 -5 -9 -41
-9 -80 -1 -40 -5 -80 -9 -89 -5 -11 -4 -18 3 -18 6 0 11 8 11 17 0 9 2 14 5
12 2 -3 1 -29 -4 -58 -7 -42 -6 -51 5 -47 8 3 14 0 14 -7 0 -7 7 -3 15 7 17
22 20 14 5 -13 -7 -14 -5 -23 10 -36 14 -13 20 -14 20 -5 0 7 3 11 6 8 3 -4
-3 -19 -13 -34 -10 -16 -12 -25 -5 -21 8 6 12 0 12 -19 0 -22 3 -24 14 -15 10
9 16 9 21 1 5 -7 11 -8 19 -1 16 13 50 -25 41 -46 -4 -13 -3 -14 10 -3 10 8
15 9 15 1 0 -16 24 -9 32 9 4 8 5 -5 2 -30 -4 -36 -2 -40 6 -22 8 20 12 21 30
10 11 -7 24 -24 29 -38 9 -24 11 -22 16 26 4 35 14 46 29 31 8 -6 11 -18 9
-24 -3 -7 -2 -13 2 -13 11 0 35 28 36 42 1 7 5 2 9 -12 5 -17 8 -19 9 -7 1 9
6 17 11 17 6 0 10 -8 10 -17 0 -11 7 -5 17 15 10 21 19 29 23 21 6 -8 9 -8 13
2 3 9 8 6 15 -11 8 -19 11 -21 11 -7 1 29 40 77 62 77 11 0 19 7 19 16 0 13 3
14 14 5 12 -10 14 -7 13 18 -1 17 2 30 6 30 15 0 38 31 32 41 -4 6 -2 16 3 23
6 7 12 24 14 37 2 14 7 31 12 39 7 10 6 12 -4 6 -10 -6 -12 -4 -7 8 7 19 -9
33 -17 15 -3 -7 -3 -2 1 12 3 14 6 34 5 45 -1 10 4 25 10 32 6 8 8 16 5 20 -4
3 -2 14 3 23 7 13 6 20 -5 24 -8 3 -14 2 -13 -2 2 -4 -9 -19 -23 -34 l-26 -27
2 59 c0 50 -3 61 -17 66 -10 3 -15 10 -12 16 5 7 1 9 -9 5 -14 -5 -17 0 -17
28 0 25 -4 33 -13 29 -8 -3 -14 2 -14 10 0 8 4 13 9 10 4 -3 5 2 2 9 -4 10
-15 14 -36 10 -23 -3 -28 -1 -22 9 9 15 -25 -9 -38 -27 -4 -5 -8 1 -8 14 0 19
-3 21 -15 11 -11 -9 -18 -9 -35 3 -11 7 -17 17 -12 22 7 8 -18 3 -53 -11 -19
-7 -19 -6 -3 12 16 19 16 20 -2 20 -10 0 -18 -4 -17 -9 1 -5 -4 -12 -11 -14
-8 -3 -10 1 -6 11 7 18 -1 22 -11 6z"/>
<path d="M11546 4305 c-9 -26 -7 -32 5 -12 6 10 9 21 6 23 -2 3 -7 -2 -11 -11z"/>
<path d="M9683 4238 c-11 -13 -24 -30 -28 -38 -8 -16 -6 -14 34 33 14 15 22
27 19 27 -2 0 -14 -10 -25 -22z"/>
<path d="M6075 4220 c-3 -6 1 -7 9 -4 18 7 21 14 7 14 -6 0 -13 -4 -16 -10z"/>
<path d="M9589 4133 c-13 -16 -12 -17 4 -4 9 7 17 15 17 17 0 8 -8 3 -21 -13z"/>
<path d="M7515 4059 c-4 -6 -5 -12 -2 -15 2 -3 7 2 10 11 7 17 1 20 -8 4z"/>
<path d="M11684 4055 c-10 -8 -14 -15 -8 -15 6 0 17 7 24 15 16 19 9 19 -16 0z"/>
<path d="M11745 3980 c-3 -5 -1 -10 4 -10 6 0 11 5 11 10 0 6 -2 10 -4 10 -3
0 -8 -4 -11 -10z"/>
<path d="M11929 3893 l-24 -28 28 24 c15 14 27 26 27 28 0 8 -8 1 -31 -24z"/>
<path d="M8645 3740 c-3 -5 -1 -10 4 -10 6 0 11 5 11 10 0 6 -2 10 -4 10 -3 0
-8 -4 -11 -10z"/>
<path d="M7045 3619 c-4 -6 -5 -12 -2 -15 2 -3 7 2 10 11 7 17 1 20 -8 4z"/>
<path d="M7004 3578 l-19 -23 23 19 c12 11 22 21 22 23 0 8 -8 2 -26 -19z"/>
<path d="M12515 3579 c-4 -6 -5 -12 -2 -15 2 -3 7 2 10 11 7 17 1 20 -8 4z"/>
<path d="M3851 3479 c-17 -10 -34 -27 -40 -37 -6 -11 -31 -44 -56 -73 -25 -29
-45 -58 -45 -65 0 -7 -5 -16 -12 -20 -7 -5 -8 -3 -3 6 5 9 4 11 -3 6 -7 -4
-10 -26 -6 -61 3 -32 1 -56 -6 -60 -5 -3 -10 -11 -10 -17 0 -6 6 -5 16 3 13
11 14 9 9 -17 -4 -16 -8 -34 -10 -41 -5 -15 20 -24 32 -12 5 5 9 -2 8 -19 0
-17 5 -26 13 -24 10 2 11 -2 4 -14 -12 -22 -3 -57 13 -50 7 2 18 -1 24 -7 8
-8 11 -8 11 2 0 11 3 11 15 1 8 -7 15 -19 15 -27 0 -8 5 -11 10 -8 6 3 10 1
10 -4 0 -6 6 -10 13 -9 7 2 11 -6 10 -17 -1 -19 -1 -19 12 -2 12 17 14 16 34
-9 12 -15 22 -22 22 -15 1 6 3 16 4 21 1 6 3 16 4 23 1 6 8 1 15 -12 l13 -24
17 24 c15 22 16 22 16 4 0 -17 2 -17 10 -5 5 8 10 11 10 6 0 -4 8 2 18 14 17
21 20 21 33 7 12 -13 16 -11 29 17 9 18 23 30 33 30 9 -1 17 4 17 12 0 9 6 11
18 7 15 -6 15 -5 3 10 -11 14 -11 18 2 23 18 7 48 81 46 114 -1 14 2 34 6 45
7 19 7 19 -7 1 -13 -17 -14 -16 -12 10 2 16 7 44 13 62 11 37 6 40 -25 11
l-22 -20 0 41 c-1 29 -7 47 -21 59 -12 10 -21 28 -21 40 0 12 -4 19 -10 16 -5
-3 -10 4 -10 16 0 16 -5 20 -20 16 -11 -3 -20 0 -20 5 0 6 -9 3 -20 -7 -11
-10 -20 -13 -20 -7 0 6 -10 12 -22 14 -13 2 -22 9 -21 15 2 12 -21 12 -33 0
-15 -15 -26 -6 -13 10 13 15 12 15 -8 4 -13 -6 -23 -8 -23 -3 0 14 -28 10 -59
-9z"/>
<path d="M11482 3470 c0 -19 2 -27 5 -17 2 9 2 25 0 35 -3 9 -5 1 -5 -18z"/>
<path d="M9982 3470 c0 -14 2 -19 5 -12 2 6 2 18 0 25 -3 6 -5 1 -5 -13z"/>
<path d="M8990 3345 c-11 -13 -10 -14 4 -9 9 3 16 10 16 15 0 13 -6 11 -20 -6z"/>
<path d="M9150 3320 c-9 -6 -10 -10 -3 -10 6 0 15 5 18 10 8 12 4 12 -15 0z"/>
<path d="M8612 2990 c0 -14 2 -19 5 -12 2 6 2 18 0 25 -3 6 -5 1 -5 -13z"/>
<path d="M2309 2975 c-17 -5 -38 -23 -47 -39 -10 -16 -28 -41 -42 -56 -68 -75
-69 -76 -65 -115 2 -22 -1 -48 -7 -60 -10 -18 -10 -19 6 -6 15 13 16 12 8 -10
-15 -37 -15 -41 -1 -50 8 -5 17 -3 22 4 6 8 7 6 3 -5 -3 -10 1 -30 9 -45 8
-15 15 -33 15 -40 0 -7 9 -10 20 -8 13 2 25 -4 33 -16 6 -10 20 -19 29 -19 10
0 18 -8 18 -17 0 -14 2 -15 9 -4 7 10 11 9 23 -8 17 -23 28 -18 28 13 1 20 1
20 15 2 13 -18 15 -18 21 -2 4 10 13 15 21 12 7 -3 23 0 34 7 16 10 21 9 28
-1 6 -10 12 -5 21 17 7 17 19 31 26 31 8 0 14 5 14 11 0 5 5 7 11 4 6 -4 9 0
7 8 -2 9 5 22 15 29 19 14 39 126 20 115 -7 -5 -7 8 -1 39 11 51 3 68 -18 40
-13 -18 -14 -17 -14 18 0 36 -21 72 -34 59 -3 -4 -6 3 -6 15 0 12 -4 22 -9 22
-5 0 -8 8 -7 17 1 19 -30 25 -51 9 -8 -5 -13 -4 -13 3 0 7 -4 10 -9 6 -5 -3
-16 2 -24 10 -9 9 -23 12 -33 8 -10 -4 -15 -2 -11 3 7 13 -26 12 -64 -1z"/>
<path d="M8782 2880 c0 -14 2 -19 5 -12 2 6 2 18 0 25 -3 6 -5 1 -5 -13z"/>
<path d="M4896 2833 c-6 -14 -5 -15 5 -6 7 7 10 15 7 18 -3 3 -9 -2 -12 -12z"/>
<path d="M8331 2790 c0 -8 4 -24 9 -35 l9 -20 0 20 c0 11 -4 27 -9 35 -9 13
-10 13 -9 0z"/>
<path d="M9551 2644 c0 -11 3 -14 6 -6 3 7 2 16 -1 19 -3 4 -6 -2 -5 -13z"/>
<path d="M998 2583 c-9 -2 -24 -16 -34 -31 -10 -15 -34 -47 -55 -72 -29 -35
-38 -55 -41 -92 -1 -25 0 -44 3 -42 4 2 6 -11 5 -29 0 -21 3 -31 11 -30 7 2
12 0 12 -5 -1 -4 2 -22 6 -39 7 -29 19 -38 47 -34 4 0 12 -8 18 -19 6 -11 15
-18 21 -15 5 4 9 -2 9 -12 0 -13 2 -15 9 -5 6 10 11 10 21 -3 13 -15 15 -15
22 6 8 21 9 21 22 4 11 -16 13 -16 19 -2 3 9 13 14 21 11 8 -3 17 0 21 6 5 8
11 8 21 -1 11 -9 14 -8 14 3 0 15 50 64 50 50 1 -14 39 76 44 104 3 16 1 35
-3 43 -6 8 -5 25 0 39 12 32 3 41 -16 16 -13 -18 -14 -17 -15 17 0 23 -6 39
-15 43 -8 3 -15 15 -15 26 0 12 -4 18 -10 15 -5 -3 -10 1 -10 9 0 14 -32 22
-64 17 -4 -1 -14 3 -20 8 -14 12 -72 20 -98 14z"/>
<path d="M7409 2473 c-13 -16 -12 -17 4 -4 16 13 21 21 13 21 -2 0 -10 -8 -17
-17z"/>
<path d="M11405 2329 c-4 -6 -5 -12 -2 -15 2 -3 7 2 10 11 7 17 1 20 -8 4z"/>
<path d="M5316 2233 c-6 -14 -5 -15 5 -6 7 7 10 15 7 18 -3 3 -9 -2 -12 -12z"/>
<path d="M8550 1949 c0 -5 5 -7 10 -4 6 3 10 8 10 11 0 2 -4 4 -10 4 -5 0 -10
-5 -10 -11z"/>
<path d="M7331 1884 c0 -11 3 -14 6 -6 3 7 2 16 -1 19 -3 4 -6 -2 -5 -13z"/>
<path d="M10700 1748 c0 -7 5 -20 10 -28 8 -12 10 -11 10 7 0 12 -4 25 -10 28
-5 3 -10 0 -10 -7z"/>
<path d="M10862 1600 c0 -14 2 -19 5 -12 2 6 2 18 0 25 -3 6 -5 1 -5 -13z"/>
<path d="M9856 1583 c-6 -14 -5 -15 5 -6 7 7 10 15 7 18 -3 3 -9 -2 -12 -12z"/>
<path d="M10851 1554 c0 -11 3 -14 6 -6 3 7 2 16 -1 19 -3 4 -6 -2 -5 -13z"/>
<path d="M10840 1440 c-12 -16 -19 -30 -16 -30 2 0 14 14 26 30 12 17 19 30
16 30 -2 0 -14 -13 -26 -30z"/>
<path d="M9796 1383 c-6 -14 -5 -15 5 -6 7 7 10 15 7 18 -3 3 -9 -2 -12 -12z"/>
<path d="M3481 1378 c0 -7 4 -22 9 -33 7 -16 8 -14 7 12 -1 18 -5 33 -9 33 -5
0 -8 -6 -7 -12z"/>
<path d="M7216 1363 c-6 -14 -5 -15 5 -6 7 7 10 15 7 18 -3 3 -9 -2 -12 -12z"/>
<path d="M9764 1338 c-4 -13 -7 -28 -6 -34 1 -6 -9 -21 -23 -34 -14 -13 -25
-27 -25 -30 0 -4 16 7 35 26 23 21 33 38 29 48 -4 9 -1 23 6 31 8 9 8 15 2 15
-6 0 -14 -10 -18 -22z"/>
<path d="M10571 1325 c0 -5 6 -21 14 -35 8 -14 14 -20 14 -15 0 6 -6 21 -14
35 -8 14 -14 21 -14 15z"/>
<path d="M10921 1234 c0 -11 3 -14 6 -6 3 7 2 16 -1 19 -3 4 -6 -2 -5 -13z"/>
<path d="M5816 1203 c-6 -14 -5 -15 5 -6 7 7 10 15 7 18 -3 3 -9 -2 -12 -12z"/>
<path d="M7166 1193 c-6 -14 -5 -15 5 -6 7 7 10 15 7 18 -3 3 -9 -2 -12 -12z"/>
<path d="M9701 1163 c-1 -6 -4 -20 -7 -30 -5 -17 -5 -17 6 0 6 10 9 23 6 30
-3 9 -5 9 -5 0z"/>
<path d="M7095 1029 c-4 -6 -5 -12 -2 -15 2 -3 7 2 10 11 7 17 1 20 -8 4z"/>
<path d="M7076 985 c-9 -26 -7 -32 5 -12 6 10 9 21 6 23 -2 3 -7 -2 -11 -11z"/>
<path d="M5078 965 c-25 -34 -22 -43 3 -11 12 15 20 29 18 31 -2 1 -12 -7 -21
-20z"/>
<path d="M8175 849 c-4 -6 -5 -12 -2 -15 2 -3 7 2 10 11 7 17 1 20 -8 4z"/>
<path d="M8196 845 c-3 -8 -1 -15 4 -15 6 0 10 7 10 15 0 8 -2 15 -4 15 -2 0
-6 -7 -10 -15z"/>
<path d="M3980 799 c0 -5 5 -7 10 -4 6 3 10 8 10 11 0 2 -4 4 -10 4 -5 0 -10
-5 -10 -11z"/>
<path d="M5010 799 c0 -5 5 -7 10 -4 6 3 10 8 10 11 0 2 -4 4 -10 4 -5 0 -10
-5 -10 -11z"/>
<path d="M10310 764 c0 -6 7 -19 16 -30 14 -18 14 -18 3 6 -14 31 -19 36 -19
24z"/>
<path d="M9440 605 c-7 -9 -11 -17 -9 -20 3 -2 10 5 17 15 14 24 10 26 -8 5z"/>
<path d="M4070 495 c-7 -9 -11 -17 -9 -20 3 -2 10 5 17 15 14 24 10 26 -8 5z"/>
<path d="M2479 413 c-13 -16 -12 -17 4 -4 16 13 21 21 13 21 -2 0 -10 -8 -17
-17z"/>
<path d="M11160 410 c-6 -11 -8 -20 -6 -20 3 0 10 9 16 20 6 11 8 20 6 20 -3
0 -10 -9 -16 -20z"/>
<path d="M8330 379 c-7 -11 -10 -23 -7 -25 2 -2 9 7 15 21 14 30 7 33 -8 4z"/>
<path d="M10111 310 c0 -8 4 -22 9 -30 12 -18 12 -2 0 25 -6 13 -9 15 -9 5z"/>
<path d="M7440 251 c0 -6 4 -13 10 -16 6 -3 7 1 4 9 -7 18 -14 21 -14 7z"/>
<path d="M9451 214 c0 -11 3 -14 6 -6 3 7 2 16 -1 19 -3 4 -6 -2 -5 -13z"/>
<path d="M7271 113 c7 -12 15 -20 18 -17 3 2 -3 12 -13 22 -17 16 -18 16 -5
-5z"/>
<path d="M11387 113 c-4 -3 -7 -13 -7 -22 1 -13 3 -13 11 2 11 19 8 33 -4 20z"/>
<path d="M6201 64 c0 -11 3 -14 6 -6 3 7 2 16 -1 19 -3 4 -6 -2 -5 -13z"/>
<path d="M8581 64 c0 -11 3 -14 6 -6 3 7 2 16 -1 19 -3 4 -6 -2 -5 -13z"/>
<path d="M8692 55 c0 -16 2 -22 5 -12 2 9 2 23 0 30 -3 6 -5 -1 -5 -18z"/>
<path d="M9711 64 c0 -11 3 -14 6 -6 3 7 2 16 -1 19 -3 4 -6 -2 -5 -13z"/>
<path d="M9720 26 c0 -8 4 -17 9 -20 5 -4 7 3 4 14 -6 23 -13 26 -13 6z"/>
</g>
</svg>
